<mxfile host="Electron" agent="Mozilla/5.0 (X11; Linux x86_64) AppleWebKit/537.36 (KHTML, like Gecko) draw.io/24.7.8 Chrome/128.0.6613.36 Electron/32.0.1 Safari/537.36" version="24.7.8">
  <diagram id="QGutVWF5jRbu2ibFILn8" name="Page-2">
    <mxGraphModel dx="580" dy="359" grid="1" gridSize="10" guides="1" tooltips="1" connect="1" arrows="1" fold="1" page="1" pageScale="1" pageWidth="850" pageHeight="1100" math="0" shadow="0">
      <root>
        <mxCell id="0" />
        <mxCell id="1" parent="0" />
        <mxCell id="6vDemuTwP7gUTz5lqWlF-47" style="rounded=0;orthogonalLoop=1;jettySize=auto;html=1;exitX=1;exitY=0.5;exitDx=0;exitDy=0;entryX=0.011;entryY=0.224;entryDx=0;entryDy=0;entryPerimeter=0;" edge="1" parent="1" source="4nHjh4T2hy_7ODl4WCVi-6" target="4nHjh4T2hy_7ODl4WCVi-5">
          <mxGeometry relative="1" as="geometry" />
        </mxCell>
        <mxCell id="6vDemuTwP7gUTz5lqWlF-48" value="Skompilowany plik" style="edgeLabel;html=1;align=center;verticalAlign=middle;resizable=0;points=[];rotation=55;" vertex="1" connectable="0" parent="6vDemuTwP7gUTz5lqWlF-47">
          <mxGeometry x="-0.0019" y="2" relative="1" as="geometry">
            <mxPoint x="6" y="-11" as="offset" />
          </mxGeometry>
        </mxCell>
        <mxCell id="4nHjh4T2hy_7ODl4WCVi-6" value="Kompilator&amp;nbsp;&lt;div&gt;JavaScript&lt;div&gt;do Wasm&lt;/div&gt;&lt;/div&gt;" style="shape=document;whiteSpace=wrap;html=1;boundedLbl=1;fillColor=#ffff88;strokeColor=#36393d;" vertex="1" parent="1">
          <mxGeometry x="161.16" y="20" width="105" height="70" as="geometry" />
        </mxCell>
        <mxCell id="6vDemuTwP7gUTz5lqWlF-29" style="edgeStyle=orthogonalEdgeStyle;rounded=0;orthogonalLoop=1;jettySize=auto;html=1;entryX=0;entryY=0.5;entryDx=0;entryDy=0;" edge="1" parent="1" source="6vDemuTwP7gUTz5lqWlF-3" target="4nHjh4T2hy_7ODl4WCVi-6">
          <mxGeometry relative="1" as="geometry" />
        </mxCell>
        <mxCell id="6vDemuTwP7gUTz5lqWlF-3" value="" style="shape=image;verticalLabelPosition=bottom;labelBackgroundColor=default;verticalAlign=top;aspect=fixed;imageAspect=0;image=https://upload.wikimedia.org/wikipedia/commons/thumb/9/99/Unofficial_JavaScript_logo_2.svg/1200px-Unofficial_JavaScript_logo_2.svg.png;" vertex="1" parent="1">
          <mxGeometry x="11.159999999999997" y="20" width="70" height="70" as="geometry" />
        </mxCell>
        <mxCell id="6vDemuTwP7gUTz5lqWlF-73" style="edgeStyle=orthogonalEdgeStyle;rounded=0;orthogonalLoop=1;jettySize=auto;html=1;entryX=0.5;entryY=1;entryDx=0;entryDy=0;" edge="1" parent="1" source="4nHjh4T2hy_7ODl4WCVi-5" target="6vDemuTwP7gUTz5lqWlF-65">
          <mxGeometry relative="1" as="geometry" />
        </mxCell>
        <mxCell id="6vDemuTwP7gUTz5lqWlF-74" value=".wasm" style="edgeLabel;html=1;align=center;verticalAlign=middle;resizable=0;points=[];" vertex="1" connectable="0" parent="6vDemuTwP7gUTz5lqWlF-73">
          <mxGeometry x="-0.1245" y="2" relative="1" as="geometry">
            <mxPoint x="-26" y="2" as="offset" />
          </mxGeometry>
        </mxCell>
        <mxCell id="6vDemuTwP7gUTz5lqWlF-80" style="edgeStyle=orthogonalEdgeStyle;rounded=0;orthogonalLoop=1;jettySize=auto;html=1;entryX=0.434;entryY=0.005;entryDx=0;entryDy=0;exitX=0.999;exitY=0.811;exitDx=0;exitDy=0;exitPerimeter=0;entryPerimeter=0;" edge="1" parent="1" source="4nHjh4T2hy_7ODl4WCVi-5" target="6vDemuTwP7gUTz5lqWlF-78">
          <mxGeometry relative="1" as="geometry">
            <mxPoint x="590.28" y="396.29999999999995" as="sourcePoint" />
            <mxPoint x="957.0400000000001" y="465" as="targetPoint" />
            <Array as="points">
              <mxPoint x="971.16" y="394" />
              <mxPoint x="971.16" y="465" />
            </Array>
          </mxGeometry>
        </mxCell>
        <mxCell id="6vDemuTwP7gUTz5lqWlF-81" value=".wasm" style="edgeLabel;html=1;align=center;verticalAlign=middle;resizable=0;points=[];" vertex="1" connectable="0" parent="6vDemuTwP7gUTz5lqWlF-80">
          <mxGeometry x="-0.4183" relative="1" as="geometry">
            <mxPoint x="-15" y="-1" as="offset" />
          </mxGeometry>
        </mxCell>
        <mxCell id="4nHjh4T2hy_7ODl4WCVi-5" value="" style="shape=image;verticalLabelPosition=bottom;labelBackgroundColor=default;verticalAlign=top;aspect=fixed;imageAspect=0;image=https://upload.wikimedia.org/wikipedia/commons/thumb/1/1f/WebAssembly_Logo.svg/1024px-WebAssembly_Logo.svg.png;" vertex="1" parent="1">
          <mxGeometry x="481.15999999999997" y="305" width="110" height="110" as="geometry" />
        </mxCell>
        <mxCell id="6vDemuTwP7gUTz5lqWlF-31" style="edgeStyle=orthogonalEdgeStyle;rounded=0;orthogonalLoop=1;jettySize=auto;html=1;" edge="1" parent="1" source="6vDemuTwP7gUTz5lqWlF-15" target="6vDemuTwP7gUTz5lqWlF-30">
          <mxGeometry relative="1" as="geometry" />
        </mxCell>
        <mxCell id="6vDemuTwP7gUTz5lqWlF-15" value="" style="shape=image;verticalLabelPosition=bottom;labelBackgroundColor=default;verticalAlign=top;aspect=fixed;imageAspect=0;image=data:image/svg+xml,PHN2ZyB4bWxucz0iaHR0cDovL3d3dy53My5vcmcvMjAwMC9zdmciIGlkPSJzdmcxMCIgdmVyc2lvbj0iMS4xIiBoZWlnaHQ9IjQyMC4wMDAzMSIgd2lkdGg9IjM4MC4wMDA4OSIgdmlld0JveD0iMCAwIDM4LjAwMDA4OSA0Mi4wMDAwMzEiPiYjeGE7ICA8bWV0YWRhdGEgaWQ9Im1ldGFkYXRhMTYiPiYjeGE7ICAgICYjeGE7ICAgICAgJiN4YTsgICAgICAgIGltYWdlL3N2Zyt4bWwmI3hhOyAgICAgICAgJiN4YTsgICAgICAgICYjeGE7ICAgICAgJiN4YTsgICAgJiN4YTsgIDwvbWV0YWRhdGE+JiN4YTsgIDxkZWZzIGlkPSJkZWZzMTQiLz4mI3hhOyAgJiN4YTsgIDxwYXRoIHN0eWxlPSJmaWxsOiMwMDQ0ODI7ZmlsbC1vcGFjaXR5OjEiIGlkPSJwYXRoMiIgY2xpcC1ydWxlPSJldmVub2RkIiBkPSJtIDE3LjkwMywwLjI4NjI4MTY2IGMgMC42NzksLTAuMzgxIDEuNTE1LC0wLjM4MSAyLjE5MywwIEMgMjMuNDUxLDIuMTY5MjgxNyAzMy41NDcsNy44MzcyODE3IDM2LjkwMyw5LjcyMDI4MTcgMzcuNTgyLDEwLjEwMDI4MiAzOCwxMC44MDQyODIgMzgsMTEuNTY2MjgyIGMgMCwzLjc2NiAwLDE1LjEwMSAwLDE4Ljg2NyAwLDAuNzYyIC0wLjQxOCwxLjQ2NiAtMS4wOTcsMS44NDcgLTMuMzU1LDEuODgzIC0xMy40NTEsNy41NTEgLTE2LjgwNyw5LjQzNCAtMC42NzksMC4zODEgLTEuNTE1LDAuMzgxIC0yLjE5MywwIC0zLjM1NSwtMS44ODMgLTEzLjQ1MSwtNy41NTEgLTE2LjgwNywtOS40MzQgLTAuNjc4LC0wLjM4MSAtMS4wOTYsLTEuMDg0IC0xLjA5NiwtMS44NDYgMCwtMy43NjYgMCwtMTUuMTAxIDAsLTE4Ljg2NyAwLC0wLjc2MiAwLjQxOCwtMS40NjYgMS4wOTcsLTEuODQ3MDAwMyAzLjM1NCwtMS44ODMgMTMuNDUyLC03LjU1MSAxNi44MDYsLTkuNDM0MDAwMDQgeiIgZmlsbC1ydWxlPSJldmVub2RkIiBmaWxsPSIjMjgzNTkzIi8+JiN4YTsgIDxwYXRoIHN0eWxlPSJmaWxsOiM2NTlhZDI7ZmlsbC1vcGFjaXR5OjEiIGlkPSJwYXRoNCIgY2xpcC1ydWxlPSJldmVub2RkIiBkPSJtIDAuMzA0LDMxLjQwNDI4MiBjIC0wLjI2NiwtMC4zNTYgLTAuMzA0LC0wLjY5NCAtMC4zMDQsLTEuMTQ5IDAsLTMuNzQ0IDAsLTE1LjAxNCAwLC0xOC43NTkgMCwtMC43NTggMC40MTcsLTEuNDU4IDEuMDk0LC0xLjgzNjAwMDMgMy4zNDMsLTEuODcyIDEzLjQwNSwtNy41MDcgMTYuNzQ4LC05LjM4MDAwMDA0IDAuNjc3LC0wLjM3OSAxLjU5NCwtMC4zNzEgMi4yNzEsMC4wMDggMy4zNDMsMS44NzIwMDAwNCAxMy4zNzEsNy40NTkwMDAwNCAxNi43MTQsOS4zMzEwMDAwNCAwLjI3LDAuMTUyIDAuNDc2LDAuMzM1IDAuNjYsMC41NzYwMDAzIHoiIGZpbGwtcnVsZT0iZXZlbm9kZCIgZmlsbD0iIzVjNmJjMCIvPiYjeGE7ICA8cGF0aCBpZD0icGF0aDYiIGNsaXAtcnVsZT0iZXZlbm9kZCIgZD0ibSAxOSw3LjAwMDI4MTcgYyA3LjcyNywwIDE0LDYuMjczMDAwMyAxNCwxNC4wMDAwMDAzIDAsNy43MjcgLTYuMjczLDE0IC0xNCwxNCAtNy43MjcsMCAtMTQsLTYuMjczIC0xNCwtMTQgMCwtNy43MjcgNi4yNzMsLTE0LjAwMDAwMDMgMTQsLTE0LjAwMDAwMDMgeiBtIDAsNy4wMDAwMDAzIGMgMy44NjMsMCA3LDMuMTM2IDcsNyAwLDMuODYzIC0zLjEzNyw3IC03LDcgLTMuODYzLDAgLTcsLTMuMTM3IC03LC03IDAsLTMuODY0IDMuMTM2LC03IDcsLTcgeiIgZmlsbC1ydWxlPSJldmVub2RkIiBmaWxsPSIjZmZmZmZmIi8+JiN4YTsgIDxwYXRoIHN0eWxlPSJmaWxsOiMwMDU5OWM7ZmlsbC1vcGFjaXR5OjEiIGlkPSJwYXRoOCIgY2xpcC1ydWxlPSJldmVub2RkIiBkPSJtIDM3LjQ4NSwxMC4yMDUyODIgYyAwLjUxNiwwLjQ4MyAwLjUwNiwxLjIxMSAwLjUwNiwxLjc4NCAwLDMuNzk1IC0wLjAzMiwxNC41ODkgMC4wMDksMTguMzg0IDAuMDA0LDAuMzk2IC0wLjEyNywwLjgxMyAtMC4zMjMsMS4xMjcgbCAtMTkuMDg0LC0xMC41IHoiIGZpbGwtcnVsZT0iZXZlbm9kZCIgZmlsbD0iIzM5NDlhYiIvPiYjeGE7PC9zdmc+;" vertex="1" parent="1">
          <mxGeometry x="11.159999999999997" y="115" width="72.38" height="80" as="geometry" />
        </mxCell>
        <mxCell id="6vDemuTwP7gUTz5lqWlF-33" style="edgeStyle=orthogonalEdgeStyle;rounded=0;orthogonalLoop=1;jettySize=auto;html=1;" edge="1" parent="1" source="6vDemuTwP7gUTz5lqWlF-21" target="6vDemuTwP7gUTz5lqWlF-32">
          <mxGeometry relative="1" as="geometry" />
        </mxCell>
        <mxCell id="6vDemuTwP7gUTz5lqWlF-21" value="" style="shape=image;aspect=fixed;image=data:image/svg+xml,PD94bWwgdmVyc2lvbj0iMS4wIiBlbmNvZGluZz0idXRmLTgiPz4NCjwhLS0gR2VuZXJhdG9yOiBBZG9iZSBJbGx1c3RyYXRvciAxNi4wLjQsIFNWRyBFeHBvcnQgUGx1Zy1JbiAuIFNWRyBWZXJzaW9uOiA2LjAwIEJ1aWxkIDApICAtLT4NCjwhRE9DVFlQRSBzdmcgUFVCTElDICItLy9XM0MvL0RURCBTVkcgMS4xLy9FTiIgImh0dHA6Ly93d3cudzMub3JnL0dyYXBoaWNzL1NWRy8xLjEvRFREL3N2ZzExLmR0ZCI+DQo8c3ZnIHZlcnNpb249IjEuMSIgaWQ9IkxheWVyXzEiIHhtbG5zPSJodHRwOi8vd3d3LnczLm9yZy8yMDAwL3N2ZyIgeG1sbnM6eGxpbms9Imh0dHA6Ly93d3cudzMub3JnLzE5OTkveGxpbmsiIHg9IjBweCIgeT0iMHB4Ig0KCSB3aWR0aD0iMzA2cHgiIGhlaWdodD0iMzQ0LjM1cHgiIHZpZXdCb3g9IjAgMCAzMDYgMzQ0LjM1IiBlbmFibGUtYmFja2dyb3VuZD0ibmV3IDAgMCAzMDYgMzQ0LjM1IiB4bWw6c3BhY2U9InByZXNlcnZlIj4NCjxwYXRoIGZpbGw9IiMwMDU5OUMiIGQ9Ik0zMDIuMTA3LDI1OC4yNjJjMi40MDEtNC4xNTksMy44OTMtOC44NDUsMy44OTMtMTMuMDUzVjk5LjE0YzAtNC4yMDgtMS40OS04Ljg5My0zLjg5Mi0xMy4wNTJMMTUzLDE3Mi4xNzUNCglMMzAyLjEwNywyNTguMjYyeiIvPg0KPHBhdGggZmlsbD0iIzAwNDQ4MiIgZD0iTTE2Ni4yNSwzNDEuMTkzbDEyNi41LTczLjAzNGMzLjY0NC0yLjEwNCw2Ljk1Ni01LjczNyw5LjM1Ny05Ljg5N0wxNTMsMTcyLjE3NUwzLjg5MywyNTguMjYzDQoJYzIuNDAxLDQuMTU5LDUuNzE0LDcuNzkzLDkuMzU3LDkuODk2bDEyNi41LDczLjAzNEMxNDcuMDM3LDM0NS40MDEsMTU4Ljk2MywzNDUuNDAxLDE2Ni4yNSwzNDEuMTkzeiIvPg0KPHBhdGggZmlsbD0iIzY1OUFEMiIgZD0iTTMwMi4xMDgsODYuMDg3Yy0yLjQwMi00LjE2LTUuNzE1LTcuNzkzLTkuMzU4LTkuODk3TDE2Ni4yNSwzLjE1NmMtNy4yODctNC4yMDgtMTkuMjEzLTQuMjA4LTI2LjUsMA0KCUwxMy4yNSw3Ni4xOUM1Ljk2Miw4MC4zOTcsMCw5MC43MjUsMCw5OS4xNHYxNDYuMDY5YzAsNC4yMDgsMS40OTEsOC44OTQsMy44OTMsMTMuMDUzTDE1MywxNzIuMTc1TDMwMi4xMDgsODYuMDg3eiIvPg0KPGc+DQoJPHBhdGggZmlsbD0iI0ZGRkZGRiIgZD0iTTE1MywyNzQuMTc1Yy01Ni4yNDMsMC0xMDItNDUuNzU3LTEwMi0xMDJzNDUuNzU3LTEwMiwxMDItMTAyYzM2LjI5MiwwLDcwLjEzOSwxOS41Myw4OC4zMzEsNTAuOTY4DQoJCWwtNDQuMTQzLDI1LjU0NGMtOS4xMDUtMTUuNzM2LTI2LjAzOC0yNS41MTItNDQuMTg4LTI1LjUxMmMtMjguMTIyLDAtNTEsMjIuODc4LTUxLDUxYzAsMjguMTIxLDIyLjg3OCw1MSw1MSw1MQ0KCQljMTguMTUyLDAsMzUuMDg1LTkuNzc2LDQ0LjE5MS0yNS41MTVsNDQuMTQzLDI1LjU0M0MyMjMuMTQyLDI1NC42NDQsMTg5LjI5NCwyNzQuMTc1LDE1MywyNzQuMTc1eiIvPg0KPC9nPg0KPGc+DQoJPHBvbHlnb24gZmlsbD0iI0ZGRkZGRiIgcG9pbnRzPSIyNTUsMTY2LjUwOCAyNDMuNjY2LDE2Ni41MDggMjQzLjY2NiwxNTUuMTc1IDIzMi4zMzQsMTU1LjE3NSAyMzIuMzM0LDE2Ni41MDggMjIxLDE2Ni41MDggDQoJCTIyMSwxNzcuODQxIDIzMi4zMzQsMTc3Ljg0MSAyMzIuMzM0LDE4OS4xNzUgMjQzLjY2NiwxODkuMTc1IDI0My42NjYsMTc3Ljg0MSAyNTUsMTc3Ljg0MSAJIi8+DQo8L2c+DQo8Zz4NCgk8cG9seWdvbiBmaWxsPSIjRkZGRkZGIiBwb2ludHM9IjI5Ny41LDE2Ni41MDggMjg2LjE2NiwxNjYuNTA4IDI4Ni4xNjYsMTU1LjE3NSAyNzQuODM0LDE1NS4xNzUgMjc0LjgzNCwxNjYuNTA4IDI2My41LDE2Ni41MDggDQoJCTI2My41LDE3Ny44NDEgMjc0LjgzNCwxNzcuODQxIDI3NC44MzQsMTg5LjE3NSAyODYuMTY2LDE4OS4xNzUgMjg2LjE2NiwxNzcuODQxIDI5Ny41LDE3Ny44NDEgCSIvPg0KPC9nPg0KPC9zdmc+DQo=;" vertex="1" parent="1">
          <mxGeometry x="10" y="210" width="71.16" height="80" as="geometry" />
        </mxCell>
        <mxCell id="6vDemuTwP7gUTz5lqWlF-35" style="edgeStyle=orthogonalEdgeStyle;rounded=0;orthogonalLoop=1;jettySize=auto;html=1;entryX=0;entryY=0.5;entryDx=0;entryDy=0;" edge="1" parent="1" source="6vDemuTwP7gUTz5lqWlF-22" target="6vDemuTwP7gUTz5lqWlF-34">
          <mxGeometry relative="1" as="geometry" />
        </mxCell>
        <mxCell id="6vDemuTwP7gUTz5lqWlF-22" value="" style="shape=image;verticalLabelPosition=bottom;labelBackgroundColor=default;verticalAlign=top;aspect=fixed;imageAspect=0;image=https://logosandtypes.com/wp-content/uploads/2020/08/rust.svg;" vertex="1" parent="1">
          <mxGeometry x="10.219999999999999" y="305" width="80" height="80" as="geometry" />
        </mxCell>
        <mxCell id="6vDemuTwP7gUTz5lqWlF-39" style="edgeStyle=orthogonalEdgeStyle;rounded=0;orthogonalLoop=1;jettySize=auto;html=1;" edge="1" parent="1" source="6vDemuTwP7gUTz5lqWlF-23" target="6vDemuTwP7gUTz5lqWlF-38">
          <mxGeometry relative="1" as="geometry" />
        </mxCell>
        <mxCell id="6vDemuTwP7gUTz5lqWlF-23" value="" style="shape=image;verticalLabelPosition=bottom;labelBackgroundColor=default;verticalAlign=top;aspect=fixed;imageAspect=0;image=https://assets.codeguru.com/uploads/2021/08/C-Sharp-Tutorials.png;clipPath=inset(2.66% 25% 2.66% 26.33%);" vertex="1" parent="1">
          <mxGeometry x="17.22" y="490" width="73" height="80" as="geometry" />
        </mxCell>
        <mxCell id="6vDemuTwP7gUTz5lqWlF-42" style="edgeStyle=orthogonalEdgeStyle;rounded=0;orthogonalLoop=1;jettySize=auto;html=1;" edge="1" parent="1" source="Bx6EQegsM14s8-VYqTBb-1" target="6vDemuTwP7gUTz5lqWlF-41">
          <mxGeometry relative="1" as="geometry">
            <mxPoint x="90.80000000000018" y="620" as="sourcePoint" />
          </mxGeometry>
        </mxCell>
        <mxCell id="6vDemuTwP7gUTz5lqWlF-37" style="edgeStyle=orthogonalEdgeStyle;rounded=0;orthogonalLoop=1;jettySize=auto;html=1;" edge="1" parent="1" source="6vDemuTwP7gUTz5lqWlF-28" target="6vDemuTwP7gUTz5lqWlF-36">
          <mxGeometry relative="1" as="geometry" />
        </mxCell>
        <mxCell id="6vDemuTwP7gUTz5lqWlF-28" value="" style="shape=image;aspect=fixed;image=data:image/svg+xml,PD94bWwgdmVyc2lvbj0iMS4wIiBlbmNvZGluZz0iVVRGLTgiIHN0YW5kYWxvbmU9Im5vIj8+CjwhLS0gQ3JlYXRlZCB3aXRoIElua3NjYXBlIChodHRwOi8vd3d3Lmlua3NjYXBlLm9yZy8pIC0tPgoKPHN2ZwogICB2ZXJzaW9uPSIxLjAiCiAgIGlkPSJzdmcyIgogICBzb2RpcG9kaTp2ZXJzaW9uPSIwLjMyIgogICBpbmtzY2FwZTp2ZXJzaW9uPSIxLjIuMSAoOWM2ZDQxZTQxMCwgMjAyMi0wNy0xNCkiCiAgIHNvZGlwb2RpOmRvY25hbWU9InB5dGhvbi1sb2dvLW9ubHkuc3ZnIgogICB3aWR0aD0iOTIuMDcwMjM2cHQiCiAgIGhlaWdodD0iMTAxLjAwMTA4cHQiCiAgIGlua3NjYXBlOmV4cG9ydC1maWxlbmFtZT0icHl0aG9uLWxvZ28tb25seS5wbmciCiAgIGlua3NjYXBlOmV4cG9ydC14ZHBpPSIyMzIuNDQiCiAgIGlua3NjYXBlOmV4cG9ydC15ZHBpPSIyMzIuNDQiCiAgIHhtbG5zOmlua3NjYXBlPSJodHRwOi8vd3d3Lmlua3NjYXBlLm9yZy9uYW1lc3BhY2VzL2lua3NjYXBlIgogICB4bWxuczpzb2RpcG9kaT0iaHR0cDovL3NvZGlwb2RpLnNvdXJjZWZvcmdlLm5ldC9EVEQvc29kaXBvZGktMC5kdGQiCiAgIHhtbG5zOnhsaW5rPSJodHRwOi8vd3d3LnczLm9yZy8xOTk5L3hsaW5rIgogICB4bWxucz0iaHR0cDovL3d3dy53My5vcmcvMjAwMC9zdmciCiAgIHhtbG5zOnN2Zz0iaHR0cDovL3d3dy53My5vcmcvMjAwMC9zdmciCiAgIHhtbG5zOnJkZj0iaHR0cDovL3d3dy53My5vcmcvMTk5OS8wMi8yMi1yZGYtc3ludGF4LW5zIyIKICAgeG1sbnM6Y2M9Imh0dHA6Ly9jcmVhdGl2ZWNvbW1vbnMub3JnL25zIyIKICAgeG1sbnM6ZGM9Imh0dHA6Ly9wdXJsLm9yZy9kYy9lbGVtZW50cy8xLjEvIj4KICA8bWV0YWRhdGEKICAgICBpZD0ibWV0YWRhdGEzNzEiPgogICAgPHJkZjpSREY+CiAgICAgIDxjYzpXb3JrCiAgICAgICAgIHJkZjphYm91dD0iIj4KICAgICAgICA8ZGM6Zm9ybWF0PmltYWdlL3N2Zyt4bWw8L2RjOmZvcm1hdD4KICAgICAgICA8ZGM6dHlwZQogICAgICAgICAgIHJkZjpyZXNvdXJjZT0iaHR0cDovL3B1cmwub3JnL2RjL2RjbWl0eXBlL1N0aWxsSW1hZ2UiIC8+CiAgICAgIDwvY2M6V29yaz4KICAgIDwvcmRmOlJERj4KICA8L21ldGFkYXRhPgogIDxzb2RpcG9kaTpuYW1lZHZpZXcKICAgICBpbmtzY2FwZTp3aW5kb3ctaGVpZ2h0PSIyMDgwIgogICAgIGlua3NjYXBlOndpbmRvdy13aWR0aD0iMTk3NiIKICAgICBpbmtzY2FwZTpwYWdlc2hhZG93PSIyIgogICAgIGlua3NjYXBlOnBhZ2VvcGFjaXR5PSIwLjAiCiAgICAgZ3VpZGV0b2xlcmFuY2U9IjEwLjAiCiAgICAgZ3JpZHRvbGVyYW5jZT0iMTAuMCIKICAgICBvYmplY3R0b2xlcmFuY2U9IjEwLjAiCiAgICAgYm9yZGVyb3BhY2l0eT0iMS4wIgogICAgIGJvcmRlcmNvbG9yPSIjNjY2NjY2IgogICAgIHBhZ2Vjb2xvcj0iI2ZmZmZmZiIKICAgICBpZD0iYmFzZSIKICAgICBpbmtzY2FwZTp6b29tPSIyLjE0NjE2NDIiCiAgICAgaW5rc2NhcGU6Y3g9IjkxLjU1ODY5OCIKICAgICBpbmtzY2FwZTpjeT0iNDcuOTkyNiIKICAgICBpbmtzY2FwZTp3aW5kb3cteD0iMTA5MiIKICAgICBpbmtzY2FwZTp3aW5kb3cteT0iNzIiCiAgICAgaW5rc2NhcGU6Y3VycmVudC1sYXllcj0ic3ZnMiIKICAgICB3aWR0aD0iMjEwbW0iCiAgICAgaGVpZ2h0PSI0MG1tIgogICAgIHVuaXRzPSJtbSIKICAgICBpbmtzY2FwZTpzaG93cGFnZXNoYWRvdz0iMiIKICAgICBpbmtzY2FwZTpwYWdlY2hlY2tlcmJvYXJkPSIwIgogICAgIGlua3NjYXBlOmRlc2tjb2xvcj0iI2QxZDFkMSIKICAgICBpbmtzY2FwZTpkb2N1bWVudC11bml0cz0icHQiCiAgICAgc2hvd2dyaWQ9ImZhbHNlIgogICAgIGlua3NjYXBlOndpbmRvdy1tYXhpbWl6ZWQ9IjAiIC8+CiAgPGRlZnMKICAgICBpZD0iZGVmczQiPgogICAgPGxpbmVhckdyYWRpZW50CiAgICAgICBpZD0ibGluZWFyR3JhZGllbnQyNzk1Ij4KICAgICAgPHN0b3AKICAgICAgICAgc3R5bGU9InN0b3AtY29sb3I6I2I4YjhiODtzdG9wLW9wYWNpdHk6MC40OTgwMzkyMjsiCiAgICAgICAgIG9mZnNldD0iMCIKICAgICAgICAgaWQ9InN0b3AyNzk3IiAvPgogICAgICA8c3RvcAogICAgICAgICBzdHlsZT0ic3RvcC1jb2xvcjojN2Y3ZjdmO3N0b3Atb3BhY2l0eTowOyIKICAgICAgICAgb2Zmc2V0PSIxIgogICAgICAgICBpZD0ic3RvcDI3OTkiIC8+CiAgICA8L2xpbmVhckdyYWRpZW50PgogICAgPGxpbmVhckdyYWRpZW50CiAgICAgICBpZD0ibGluZWFyR3JhZGllbnQyNzg3Ij4KICAgICAgPHN0b3AKICAgICAgICAgc3R5bGU9InN0b3AtY29sb3I6IzdmN2Y3ZjtzdG9wLW9wYWNpdHk6MC41OyIKICAgICAgICAgb2Zmc2V0PSIwIgogICAgICAgICBpZD0ic3RvcDI3ODkiIC8+CiAgICAgIDxzdG9wCiAgICAgICAgIHN0eWxlPSJzdG9wLWNvbG9yOiM3ZjdmN2Y7c3RvcC1vcGFjaXR5OjA7IgogICAgICAgICBvZmZzZXQ9IjEiCiAgICAgICAgIGlkPSJzdG9wMjc5MSIgLz4KICAgIDwvbGluZWFyR3JhZGllbnQ+CiAgICA8bGluZWFyR3JhZGllbnQKICAgICAgIGlkPSJsaW5lYXJHcmFkaWVudDM2NzYiPgogICAgICA8c3RvcAogICAgICAgICBzdHlsZT0ic3RvcC1jb2xvcjojYjJiMmIyO3N0b3Atb3BhY2l0eTowLjU7IgogICAgICAgICBvZmZzZXQ9IjAiCiAgICAgICAgIGlkPSJzdG9wMzY3OCIgLz4KICAgICAgPHN0b3AKICAgICAgICAgc3R5bGU9InN0b3AtY29sb3I6I2IzYjNiMztzdG9wLW9wYWNpdHk6MDsiCiAgICAgICAgIG9mZnNldD0iMSIKICAgICAgICAgaWQ9InN0b3AzNjgwIiAvPgogICAgPC9saW5lYXJHcmFkaWVudD4KICAgIDxsaW5lYXJHcmFkaWVudAogICAgICAgaWQ9ImxpbmVhckdyYWRpZW50MzIzNiI+CiAgICAgIDxzdG9wCiAgICAgICAgIHN0eWxlPSJzdG9wLWNvbG9yOiNmNGY0ZjQ7c3RvcC1vcGFjaXR5OjEiCiAgICAgICAgIG9mZnNldD0iMCIKICAgICAgICAgaWQ9InN0b3AzMjQ0IiAvPgogICAgICA8c3RvcAogICAgICAgICBzdHlsZT0ic3RvcC1jb2xvcjp3aGl0ZTtzdG9wLW9wYWNpdHk6MSIKICAgICAgICAgb2Zmc2V0PSIxIgogICAgICAgICBpZD0ic3RvcDMyNDAiIC8+CiAgICA8L2xpbmVhckdyYWRpZW50PgogICAgPGxpbmVhckdyYWRpZW50CiAgICAgICBpZD0ibGluZWFyR3JhZGllbnQ0NjcxIj4KICAgICAgPHN0b3AKICAgICAgICAgc3R5bGU9InN0b3AtY29sb3I6I2ZmZDQzYjtzdG9wLW9wYWNpdHk6MTsiCiAgICAgICAgIG9mZnNldD0iMCIKICAgICAgICAgaWQ9InN0b3A0NjczIiAvPgogICAgICA8c3RvcAogICAgICAgICBzdHlsZT0ic3RvcC1jb2xvcjojZmZlODczO3N0b3Atb3BhY2l0eToxIgogICAgICAgICBvZmZzZXQ9IjEiCiAgICAgICAgIGlkPSJzdG9wNDY3NSIgLz4KICAgIDwvbGluZWFyR3JhZGllbnQ+CiAgICA8bGluZWFyR3JhZGllbnQKICAgICAgIGlkPSJsaW5lYXJHcmFkaWVudDQ2ODkiPgogICAgICA8c3RvcAogICAgICAgICBzdHlsZT0ic3RvcC1jb2xvcjojNWE5ZmQ0O3N0b3Atb3BhY2l0eToxOyIKICAgICAgICAgb2Zmc2V0PSIwIgogICAgICAgICBpZD0ic3RvcDQ2OTEiIC8+CiAgICAgIDxzdG9wCiAgICAgICAgIHN0eWxlPSJzdG9wLWNvbG9yOiMzMDY5OTg7c3RvcC1vcGFjaXR5OjE7IgogICAgICAgICBvZmZzZXQ9IjEiCiAgICAgICAgIGlkPSJzdG9wNDY5MyIgLz4KICAgIDwvbGluZWFyR3JhZGllbnQ+CiAgICA8bGluZWFyR3JhZGllbnQKICAgICAgIHgxPSIyMjQuMjM5OTYiCiAgICAgICB5MT0iMTQ0Ljc1NzE3IgogICAgICAgeDI9Ii02NS4zMDg1MDIiCiAgICAgICB5Mj0iMTQ0Ljc1NzE3IgogICAgICAgaWQ9ImxpbmVhckdyYWRpZW50Mjk4NyIKICAgICAgIHhsaW5rOmhyZWY9IiNsaW5lYXJHcmFkaWVudDQ2NzEiCiAgICAgICBncmFkaWVudFVuaXRzPSJ1c2VyU3BhY2VPblVzZSIKICAgICAgIGdyYWRpZW50VHJhbnNmb3JtPSJ0cmFuc2xhdGUoMTAwLjI3MDIsOTkuNjExMTYpIiAvPgogICAgPGxpbmVhckdyYWRpZW50CiAgICAgICB4MT0iMTcyLjk0MjA4IgogICAgICAgeTE9Ijc3LjQ3NTk4MyIKICAgICAgIHgyPSIyNi42NzAyOTgiCiAgICAgICB5Mj0iNzYuMzEzMTMzIgogICAgICAgaWQ9ImxpbmVhckdyYWRpZW50Mjk5MCIKICAgICAgIHhsaW5rOmhyZWY9IiNsaW5lYXJHcmFkaWVudDQ2ODkiCiAgICAgICBncmFkaWVudFVuaXRzPSJ1c2VyU3BhY2VPblVzZSIKICAgICAgIGdyYWRpZW50VHJhbnNmb3JtPSJ0cmFuc2xhdGUoMTAwLjI3MDIsOTkuNjExMTYpIiAvPgogICAgPGxpbmVhckdyYWRpZW50CiAgICAgICBpbmtzY2FwZTpjb2xsZWN0PSJhbHdheXMiCiAgICAgICB4bGluazpocmVmPSIjbGluZWFyR3JhZGllbnQ0Njg5IgogICAgICAgaWQ9ImxpbmVhckdyYWRpZW50MjU4NyIKICAgICAgIGdyYWRpZW50VW5pdHM9InVzZXJTcGFjZU9uVXNlIgogICAgICAgZ3JhZGllbnRUcmFuc2Zvcm09InRyYW5zbGF0ZSgxMDAuMjcwMiw5OS42MTExNikiCiAgICAgICB4MT0iMTcyLjk0MjA4IgogICAgICAgeTE9Ijc3LjQ3NTk4MyIKICAgICAgIHgyPSIyNi42NzAyOTgiCiAgICAgICB5Mj0iNzYuMzEzMTMzIiAvPgogICAgPGxpbmVhckdyYWRpZW50CiAgICAgICBpbmtzY2FwZTpjb2xsZWN0PSJhbHdheXMiCiAgICAgICB4bGluazpocmVmPSIjbGluZWFyR3JhZGllbnQ0NjcxIgogICAgICAgaWQ9ImxpbmVhckdyYWRpZW50MjU4OSIKICAgICAgIGdyYWRpZW50VW5pdHM9InVzZXJTcGFjZU9uVXNlIgogICAgICAgZ3JhZGllbnRUcmFuc2Zvcm09InRyYW5zbGF0ZSgxMDAuMjcwMiw5OS42MTExNikiCiAgICAgICB4MT0iMjI0LjIzOTk2IgogICAgICAgeTE9IjE0NC43NTcxNyIKICAgICAgIHgyPSItNjUuMzA4NTAyIgogICAgICAgeTI9IjE0NC43NTcxNyIgLz4KICAgIDxsaW5lYXJHcmFkaWVudAogICAgICAgaW5rc2NhcGU6Y29sbGVjdD0iYWx3YXlzIgogICAgICAgeGxpbms6aHJlZj0iI2xpbmVhckdyYWRpZW50NDY4OSIKICAgICAgIGlkPSJsaW5lYXJHcmFkaWVudDIyNDgiCiAgICAgICBncmFkaWVudFVuaXRzPSJ1c2VyU3BhY2VPblVzZSIKICAgICAgIGdyYWRpZW50VHJhbnNmb3JtPSJ0cmFuc2xhdGUoMTAwLjI3MDIsOTkuNjExMTYpIgogICAgICAgeDE9IjE3Mi45NDIwOCIKICAgICAgIHkxPSI3Ny40NzU5ODMiCiAgICAgICB4Mj0iMjYuNjcwMjk4IgogICAgICAgeTI9Ijc2LjMxMzEzMyIgLz4KICAgIDxsaW5lYXJHcmFkaWVudAogICAgICAgaW5rc2NhcGU6Y29sbGVjdD0iYWx3YXlzIgogICAgICAgeGxpbms6aHJlZj0iI2xpbmVhckdyYWRpZW50NDY3MSIKICAgICAgIGlkPSJsaW5lYXJHcmFkaWVudDIyNTAiCiAgICAgICBncmFkaWVudFVuaXRzPSJ1c2VyU3BhY2VPblVzZSIKICAgICAgIGdyYWRpZW50VHJhbnNmb3JtPSJ0cmFuc2xhdGUoMTAwLjI3MDIsOTkuNjExMTYpIgogICAgICAgeDE9IjIyNC4yMzk5NiIKICAgICAgIHkxPSIxNDQuNzU3MTciCiAgICAgICB4Mj0iLTY1LjMwODUwMiIKICAgICAgIHkyPSIxNDQuNzU3MTciIC8+CiAgICA8bGluZWFyR3JhZGllbnQKICAgICAgIGlua3NjYXBlOmNvbGxlY3Q9ImFsd2F5cyIKICAgICAgIHhsaW5rOmhyZWY9IiNsaW5lYXJHcmFkaWVudDQ2NzEiCiAgICAgICBpZD0ibGluZWFyR3JhZGllbnQyMjU1IgogICAgICAgZ3JhZGllbnRVbml0cz0idXNlclNwYWNlT25Vc2UiCiAgICAgICBncmFkaWVudFRyYW5zZm9ybT0ibWF0cml4KDAuNTYyNTQxLDAsMCwwLjU2Nzk3MiwtMTEuNTk3NCwtNy42MDk1NCkiCiAgICAgICB4MT0iMjI0LjIzOTk2IgogICAgICAgeTE9IjE0NC43NTcxNyIKICAgICAgIHgyPSItNjUuMzA4NTAyIgogICAgICAgeTI9IjE0NC43NTcxNyIgLz4KICAgIDxsaW5lYXJHcmFkaWVudAogICAgICAgaW5rc2NhcGU6Y29sbGVjdD0iYWx3YXlzIgogICAgICAgeGxpbms6aHJlZj0iI2xpbmVhckdyYWRpZW50NDY4OSIKICAgICAgIGlkPSJsaW5lYXJHcmFkaWVudDIyNTgiCiAgICAgICBncmFkaWVudFVuaXRzPSJ1c2VyU3BhY2VPblVzZSIKICAgICAgIGdyYWRpZW50VHJhbnNmb3JtPSJtYXRyaXgoMC41NjI1NDEsMCwwLDAuNTY3OTcyLC0xMS41OTc0LC03LjYwOTU0KSIKICAgICAgIHgxPSIxNzIuOTQyMDgiCiAgICAgICB5MT0iNzYuMTc2MjI0IgogICAgICAgeDI9IjI2LjY3MDI5OCIKICAgICAgIHkyPSI3Ni4zMTMxMzMiIC8+CiAgICA8cmFkaWFsR3JhZGllbnQKICAgICAgIGlua3NjYXBlOmNvbGxlY3Q9ImFsd2F5cyIKICAgICAgIHhsaW5rOmhyZWY9IiNsaW5lYXJHcmFkaWVudDI3OTUiCiAgICAgICBpZD0icmFkaWFsR3JhZGllbnQyODAxIgogICAgICAgY3g9IjYxLjUxODg4MyIKICAgICAgIGN5PSIxMzIuMjg1NzUiCiAgICAgICBmeD0iNjEuNTE4ODgzIgogICAgICAgZnk9IjEzMi4yODU3NSIKICAgICAgIHI9IjI5LjAzNjkxMyIKICAgICAgIGdyYWRpZW50VHJhbnNmb3JtPSJtYXRyaXgoMSwwLDAsMC4xNzc5NjYsMCwxMDguNzQzNCkiCiAgICAgICBncmFkaWVudFVuaXRzPSJ1c2VyU3BhY2VPblVzZSIgLz4KICAgIDxsaW5lYXJHcmFkaWVudAogICAgICAgaW5rc2NhcGU6Y29sbGVjdD0iYWx3YXlzIgogICAgICAgeGxpbms6aHJlZj0iI2xpbmVhckdyYWRpZW50NDY3MSIKICAgICAgIGlkPSJsaW5lYXJHcmFkaWVudDE0NzUiCiAgICAgICBncmFkaWVudFVuaXRzPSJ1c2VyU3BhY2VPblVzZSIKICAgICAgIGdyYWRpZW50VHJhbnNmb3JtPSJtYXRyaXgoMC41NjI1NDEsMCwwLDAuNTY3OTcyLC0xNC45OTExMiwtMTEuNzAyMzcxKSIKICAgICAgIHgxPSIxNTAuOTYxMTEiCiAgICAgICB5MT0iMTkyLjM1MTc2IgogICAgICAgeDI9IjExMi4wMzE0NCIKICAgICAgIHkyPSIxMzcuMjcyOTkiIC8+CiAgICA8bGluZWFyR3JhZGllbnQKICAgICAgIGlua3NjYXBlOmNvbGxlY3Q9ImFsd2F5cyIKICAgICAgIHhsaW5rOmhyZWY9IiNsaW5lYXJHcmFkaWVudDQ2ODkiCiAgICAgICBpZD0ibGluZWFyR3JhZGllbnQxNDc4IgogICAgICAgZ3JhZGllbnRVbml0cz0idXNlclNwYWNlT25Vc2UiCiAgICAgICBncmFkaWVudFRyYW5zZm9ybT0ibWF0cml4KDAuNTYyNTQxLDAsMCwwLjU2Nzk3MiwtMTQuOTkxMTIsLTExLjcwMjM3MSkiCiAgICAgICB4MT0iMjYuNjQ4OTM3IgogICAgICAgeTE9IjIwLjYwMzc4MSIKICAgICAgIHgyPSIxMzUuNjY1MjUiCiAgICAgICB5Mj0iMTE0LjM5NzY3IiAvPgogICAgPHJhZGlhbEdyYWRpZW50CiAgICAgICBpbmtzY2FwZTpjb2xsZWN0PSJhbHdheXMiCiAgICAgICB4bGluazpocmVmPSIjbGluZWFyR3JhZGllbnQyNzk1IgogICAgICAgaWQ9InJhZGlhbEdyYWRpZW50MTQ4MCIKICAgICAgIGdyYWRpZW50VW5pdHM9InVzZXJTcGFjZU9uVXNlIgogICAgICAgZ3JhZGllbnRUcmFuc2Zvcm09Im1hdHJpeCgxLjc0OTA1NjVlLTgsLTAuMjM5OTQ2OTYsMS4wNTQ2NjgsMy43OTE1NDU3ZS03LC04My43MDA4LDE0Mi40NjIwMSkiCiAgICAgICBjeD0iNjEuNTE4ODgzIgogICAgICAgY3k9IjEzMi4yODU3NSIKICAgICAgIGZ4PSI2MS41MTg4ODMiCiAgICAgICBmeT0iMTMyLjI4NTc1IgogICAgICAgcj0iMjkuMDM2OTEzIiAvPgogIDwvZGVmcz4KICA8cGF0aAogICAgIHN0eWxlPSJmaWxsOnVybCgjbGluZWFyR3JhZGllbnQxNDc4KTtmaWxsLW9wYWNpdHk6MSIKICAgICBkPSJNIDU0LjkxODc4NSw5LjE5MjczODllLTQgQyA1MC4zMzUxMzIsMC4wMjIyMTcyNyA0NS45NTc4NDYsMC40MTMxMzY5NyA0Mi4xMDYyODUsMS4wOTQ2NjkzIDMwLjc2MDA2OSwzLjA5OTE3MzEgMjguNzAwMDM2LDcuMjk0NzcxNCAyOC43MDAwMzUsMTUuMDMyMTY5IHYgMTAuMjE4NzUgaCAyNi44MTI1IHYgMy40MDYyNSBoIC0yNi44MTI1IC0xMC4wNjI1IGMgLTcuNzkyNDU5LDAgLTE0LjYxNTc1ODgsNC42ODM3MTcgLTE2Ljc0OTk5OTgsMTMuNTkzNzUgLTIuNDYxODE5OTgsMTAuMjEyOTY2IC0yLjU3MTAxNTA4LDE2LjU4NjAyMyAwLDI3LjI1IDEuOTA1OTI4Myw3LjkzNzg1MiA2LjQ1NzU0MzIsMTMuNTkzNzQ4IDE0LjI0OTk5OTgsMTMuNTkzNzUgaCA5LjIxODc1IHYgLTEyLjI1IGMgMCwtOC44NDk5MDIgNy42NTcxNDQsLTE2LjY1NjI0OCAxNi43NSwtMTYuNjU2MjUgaCAyNi43ODEyNSBjIDcuNDU0OTUxLDAgMTMuNDA2MjUzLC02LjEzODE2NCAxMy40MDYyNSwtMTMuNjI1IHYgLTI1LjUzMTI1IGMgMCwtNy4yNjYzMzg2IC02LjEyOTk4LC0xMi43MjQ3NzcxIC0xMy40MDYyNSwtMTMuOTM3NDk5NyBDIDY0LjI4MTU0OCwwLjMyNzk0Mzk3IDU5LjUwMjQzOCwtMC4wMjAzNzkwMyA1NC45MTg3ODUsOS4xOTI3Mzg5ZS00IFogbSAtMTQuNSw4LjIxODc1MDEyNjExIGMgMi43Njk1NDcsMCA1LjAzMTI1LDIuMjk4NjQ1NiA1LjAzMTI1LDUuMTI0OTk5NiAtMmUtNiwyLjgxNjMzNiAtMi4yNjE3MDMsNS4wOTM3NSAtNS4wMzEyNSw1LjA5Mzc1IC0yLjc3OTQ3NiwtMWUtNiAtNS4wMzEyNSwtMi4yNzc0MTUgLTUuMDMxMjUsLTUuMDkzNzUgLTEwZS03LC0yLjgyNjM1MyAyLjI1MTc3NCwtNS4xMjQ5OTk2IDUuMDMxMjUsLTUuMTI0OTk5NiB6IgogICAgIGlkPSJwYXRoMTk0OCIgLz4KICA8cGF0aAogICAgIHN0eWxlPSJmaWxsOnVybCgjbGluZWFyR3JhZGllbnQxNDc1KTtmaWxsLW9wYWNpdHk6MSIKICAgICBkPSJtIDg1LjYzNzUzNSwyOC42NTcxNjkgdiAxMS45MDYyNSBjIDAsOS4yMzA3NTUgLTcuODI1ODk1LDE2Ljk5OTk5OSAtMTYuNzUsMTcgaCAtMjYuNzgxMjUgYyAtNy4zMzU4MzMsMCAtMTMuNDA2MjQ5LDYuMjc4NDgzIC0xMy40MDYyNSwxMy42MjUgdiAyNS41MzEyNDcgYyAwLDcuMjY2MzQ0IDYuMzE4NTg4LDExLjU0MDMyNCAxMy40MDYyNSwxMy42MjUwMDQgOC40ODczMzEsMi40OTU2MSAxNi42MjYyMzcsMi45NDY2MyAyNi43ODEyNSwwIDYuNzUwMTU1LC0xLjk1NDM5IDEzLjQwNjI1MywtNS44ODc2MSAxMy40MDYyNSwtMTMuNjI1MDA0IFYgODYuNTAwOTE5IGggLTI2Ljc4MTI1IHYgLTMuNDA2MjUgaCAyNi43ODEyNSAxMy40MDYyNTQgYyA3Ljc5MjQ2MSwwIDEwLjY5NjI1MSwtNS40MzU0MDggMTMuNDA2MjQxLC0xMy41OTM3NSAyLjc5OTMzLC04LjM5ODg4NiAyLjY4MDIyLC0xNi40NzU3NzYgMCwtMjcuMjUgLTEuOTI1NzgsLTcuNzU3NDQxIC01LjYwMzg3LC0xMy41OTM3NSAtMTMuNDA2MjQxLC0xMy41OTM3NSB6IG0gLTE1LjA2MjUsNjQuNjU2MjUgYyAyLjc3OTQ3OCwzZS02IDUuMDMxMjUsMi4yNzc0MTcgNS4wMzEyNSw1LjA5Mzc0NyAtMmUtNiwyLjgyNjM1NCAtMi4yNTE3NzUsNS4xMjUwMDQgLTUuMDMxMjUsNS4xMjUwMDQgLTIuNzY5NTUsMCAtNS4wMzEyNSwtMi4yOTg2NSAtNS4wMzEyNSwtNS4xMjUwMDQgMmUtNiwtMi44MTYzMyAyLjI2MTY5NywtNS4wOTM3NDcgNS4wMzEyNSwtNS4wOTM3NDcgeiIKICAgICBpZD0icGF0aDE5NTAiIC8+CiAgPGVsbGlwc2UKICAgICBzdHlsZT0ib3BhY2l0eTowLjQ0MzgyO2ZpbGw6dXJsKCNyYWRpYWxHcmFkaWVudDE0ODApO2ZpbGwtb3BhY2l0eToxO2ZpbGwtcnVsZTpub256ZXJvO3N0cm9rZTpub25lO3N0cm9rZS13aWR0aDoxNS40MTc0O3N0cm9rZS1taXRlcmxpbWl0OjQ7c3Ryb2tlLWRhc2hhcnJheTpub25lO3N0cm9rZS1vcGFjaXR5OjEiCiAgICAgaWQ9InBhdGgxODk0IgogICAgIGN4PSI1NS44MTY3NjEiCiAgICAgY3k9IjEyNy43MDA3OSIKICAgICByeD0iMzUuOTMwOTc3IgogICAgIHJ5PSI2Ljk2NzMxMTkiIC8+Cjwvc3ZnPgo=;" vertex="1" parent="1">
          <mxGeometry x="17.330000000000013" y="395" width="72.89" height="80" as="geometry" />
        </mxCell>
        <mxCell id="6vDemuTwP7gUTz5lqWlF-30" value="Kompilator&amp;nbsp;&lt;div&gt;C&lt;br&gt;&lt;div&gt;do Wasm&lt;/div&gt;&lt;/div&gt;" style="shape=document;whiteSpace=wrap;html=1;boundedLbl=1;fillColor=#f9f7ed;strokeColor=#36393d;" vertex="1" parent="1">
          <mxGeometry x="161.16" y="120" width="105" height="70" as="geometry" />
        </mxCell>
        <mxCell id="6vDemuTwP7gUTz5lqWlF-32" value="Kompilator&amp;nbsp;&lt;div&gt;C++&lt;br&gt;&lt;div&gt;do Wasm&lt;/div&gt;&lt;/div&gt;" style="shape=document;whiteSpace=wrap;html=1;boundedLbl=1;fillColor=#cce5ff;strokeColor=#36393d;" vertex="1" parent="1">
          <mxGeometry x="161.16" y="215" width="105" height="70" as="geometry" />
        </mxCell>
        <mxCell id="6vDemuTwP7gUTz5lqWlF-34" value="Kompilator&amp;nbsp;&lt;div&gt;&lt;div&gt;Rust do Wasm&lt;/div&gt;&lt;/div&gt;" style="shape=document;whiteSpace=wrap;html=1;boundedLbl=1;fillColor=#ffcc99;strokeColor=#36393d;" vertex="1" parent="1">
          <mxGeometry x="161.16" y="310" width="105" height="70" as="geometry" />
        </mxCell>
        <mxCell id="6vDemuTwP7gUTz5lqWlF-36" value="Kompilator&amp;nbsp;&lt;div&gt;&lt;div&gt;Python do Wasm&lt;/div&gt;&lt;/div&gt;" style="shape=document;whiteSpace=wrap;html=1;boundedLbl=1;fillColor=#cdeb8b;strokeColor=#36393d;" vertex="1" parent="1">
          <mxGeometry x="161.16" y="400" width="105" height="70" as="geometry" />
        </mxCell>
        <mxCell id="6vDemuTwP7gUTz5lqWlF-38" value="Kompilator&amp;nbsp;&lt;div&gt;&lt;div&gt;C# do Wasm&lt;/div&gt;&lt;/div&gt;" style="shape=document;whiteSpace=wrap;html=1;boundedLbl=1;fillColor=#6a00ff;strokeColor=#3700CC;fontColor=#ffffff;" vertex="1" parent="1">
          <mxGeometry x="161.16" y="495" width="105" height="70" as="geometry" />
        </mxCell>
        <mxCell id="6vDemuTwP7gUTz5lqWlF-41" value="Kompilator&amp;nbsp;&lt;div&gt;&lt;div&gt;Go do Wasm&lt;/div&gt;&lt;/div&gt;" style="shape=document;whiteSpace=wrap;html=1;boundedLbl=1;fillColor=#1ba1e2;strokeColor=#006EAF;fontColor=#ffffff;" vertex="1" parent="1">
          <mxGeometry x="161.16" y="585" width="105" height="70" as="geometry" />
        </mxCell>
        <mxCell id="6vDemuTwP7gUTz5lqWlF-49" style="rounded=0;orthogonalLoop=1;jettySize=auto;html=1;entryX=0.012;entryY=0.36;entryDx=0;entryDy=0;exitX=1;exitY=0.25;exitDx=0;exitDy=0;entryPerimeter=0;" edge="1" parent="1" source="6vDemuTwP7gUTz5lqWlF-30" target="4nHjh4T2hy_7ODl4WCVi-5">
          <mxGeometry relative="1" as="geometry">
            <mxPoint x="291.15999999999997" y="165" as="sourcePoint" />
            <mxPoint x="476.15999999999997" y="460" as="targetPoint" />
          </mxGeometry>
        </mxCell>
        <mxCell id="6vDemuTwP7gUTz5lqWlF-50" value="Skompilowany plik" style="edgeLabel;html=1;align=center;verticalAlign=middle;resizable=0;points=[];rotation=47;" vertex="1" connectable="0" parent="6vDemuTwP7gUTz5lqWlF-49">
          <mxGeometry x="-0.0019" y="-2" relative="1" as="geometry">
            <mxPoint x="-14" y="-32" as="offset" />
          </mxGeometry>
        </mxCell>
        <mxCell id="6vDemuTwP7gUTz5lqWlF-51" style="rounded=0;orthogonalLoop=1;jettySize=auto;html=1;entryX=0.004;entryY=0.416;entryDx=0;entryDy=0;exitX=0.998;exitY=0.426;exitDx=0;exitDy=0;exitPerimeter=0;entryPerimeter=0;" edge="1" parent="1" source="6vDemuTwP7gUTz5lqWlF-32" target="4nHjh4T2hy_7ODl4WCVi-5">
          <mxGeometry relative="1" as="geometry">
            <mxPoint x="276.15999999999997" y="234" as="sourcePoint" />
            <mxPoint x="491.15999999999997" y="456" as="targetPoint" />
          </mxGeometry>
        </mxCell>
        <mxCell id="6vDemuTwP7gUTz5lqWlF-52" value="Skompilowany plik" style="edgeLabel;html=1;align=center;verticalAlign=middle;resizable=0;points=[];rotation=30;" vertex="1" connectable="0" parent="6vDemuTwP7gUTz5lqWlF-51">
          <mxGeometry x="-0.0019" y="-4" relative="1" as="geometry">
            <mxPoint x="-20" y="-29" as="offset" />
          </mxGeometry>
        </mxCell>
        <mxCell id="6vDemuTwP7gUTz5lqWlF-53" style="rounded=0;orthogonalLoop=1;jettySize=auto;html=1;entryX=0;entryY=0.5;entryDx=0;entryDy=0;exitX=0.998;exitY=0.44;exitDx=0;exitDy=0;exitPerimeter=0;" edge="1" parent="1" source="6vDemuTwP7gUTz5lqWlF-34" target="4nHjh4T2hy_7ODl4WCVi-5">
          <mxGeometry relative="1" as="geometry">
            <mxPoint x="276.15999999999997" y="255" as="sourcePoint" />
            <mxPoint x="491.15999999999997" y="370" as="targetPoint" />
          </mxGeometry>
        </mxCell>
        <mxCell id="6vDemuTwP7gUTz5lqWlF-54" value="Skompilowany plik" style="edgeLabel;html=1;align=center;verticalAlign=middle;resizable=0;points=[];rotation=5;" vertex="1" connectable="0" parent="6vDemuTwP7gUTz5lqWlF-53">
          <mxGeometry x="-0.0019" y="1" relative="1" as="geometry">
            <mxPoint x="-12" y="-9" as="offset" />
          </mxGeometry>
        </mxCell>
        <mxCell id="6vDemuTwP7gUTz5lqWlF-55" style="rounded=0;orthogonalLoop=1;jettySize=auto;html=1;entryX=0.005;entryY=0.567;entryDx=0;entryDy=0;exitX=0.999;exitY=0.331;exitDx=0;exitDy=0;exitPerimeter=0;entryPerimeter=0;" edge="1" parent="1" source="6vDemuTwP7gUTz5lqWlF-36" target="4nHjh4T2hy_7ODl4WCVi-5">
          <mxGeometry relative="1" as="geometry">
            <mxPoint x="266.15999999999997" y="435" as="sourcePoint" />
            <mxPoint x="481.15999999999997" y="454" as="targetPoint" />
          </mxGeometry>
        </mxCell>
        <mxCell id="6vDemuTwP7gUTz5lqWlF-56" value="Skompilowany plik" style="edgeLabel;html=1;align=center;verticalAlign=middle;resizable=0;points=[];rotation=353;" vertex="1" connectable="0" parent="6vDemuTwP7gUTz5lqWlF-55">
          <mxGeometry x="-0.0019" relative="1" as="geometry">
            <mxPoint x="-14" y="-9" as="offset" />
          </mxGeometry>
        </mxCell>
        <mxCell id="6vDemuTwP7gUTz5lqWlF-57" style="rounded=0;orthogonalLoop=1;jettySize=auto;html=1;entryX=0.003;entryY=0.621;entryDx=0;entryDy=0;exitX=1;exitY=0.5;exitDx=0;exitDy=0;entryPerimeter=0;" edge="1" parent="1" source="6vDemuTwP7gUTz5lqWlF-38" target="4nHjh4T2hy_7ODl4WCVi-5">
          <mxGeometry relative="1" as="geometry">
            <mxPoint x="274.15999999999997" y="434" as="sourcePoint" />
            <mxPoint x="493.15999999999997" y="404" as="targetPoint" />
          </mxGeometry>
        </mxCell>
        <mxCell id="6vDemuTwP7gUTz5lqWlF-58" value="Skompilowany plik" style="edgeLabel;html=1;align=center;verticalAlign=middle;resizable=0;points=[];rotation=-30;" vertex="1" connectable="0" parent="6vDemuTwP7gUTz5lqWlF-57">
          <mxGeometry x="-0.0019" y="-3" relative="1" as="geometry">
            <mxPoint x="-12" y="-9" as="offset" />
          </mxGeometry>
        </mxCell>
        <mxCell id="6vDemuTwP7gUTz5lqWlF-59" style="rounded=0;orthogonalLoop=1;jettySize=auto;html=1;entryX=0;entryY=0.75;entryDx=0;entryDy=0;exitX=1;exitY=0.5;exitDx=0;exitDy=0;" edge="1" parent="1" source="6vDemuTwP7gUTz5lqWlF-41" target="4nHjh4T2hy_7ODl4WCVi-5">
          <mxGeometry relative="1" as="geometry">
            <mxPoint x="276.15999999999997" y="540" as="sourcePoint" />
            <mxPoint x="491.15999999999997" y="414" as="targetPoint" />
          </mxGeometry>
        </mxCell>
        <mxCell id="6vDemuTwP7gUTz5lqWlF-60" value="Skompilowany plik" style="edgeLabel;html=1;align=center;verticalAlign=middle;resizable=0;points=[];rotation=-46;" vertex="1" connectable="0" parent="6vDemuTwP7gUTz5lqWlF-59">
          <mxGeometry x="-0.0019" y="-3" relative="1" as="geometry">
            <mxPoint x="-12" y="-9" as="offset" />
          </mxGeometry>
        </mxCell>
        <mxCell id="6vDemuTwP7gUTz5lqWlF-72" value="" style="group" vertex="1" connectable="0" parent="1">
          <mxGeometry x="671.16" y="125" width="205" height="125" as="geometry" />
        </mxCell>
        <mxCell id="6vDemuTwP7gUTz5lqWlF-70" value="" style="group" vertex="1" connectable="0" parent="6vDemuTwP7gUTz5lqWlF-72">
          <mxGeometry y="5" width="180" height="120" as="geometry" />
        </mxCell>
        <mxCell id="6vDemuTwP7gUTz5lqWlF-62" value="Javascript" style="rounded=0;whiteSpace=wrap;html=1;verticalAlign=top;fillColor=#ffe6cc;strokeColor=#d79b00;" vertex="1" parent="6vDemuTwP7gUTz5lqWlF-70">
          <mxGeometry width="120" height="60" as="geometry" />
        </mxCell>
        <mxCell id="6vDemuTwP7gUTz5lqWlF-63" value="HTML" style="rounded=0;whiteSpace=wrap;html=1;verticalAlign=top;fillColor=#d5e8d4;strokeColor=#82b366;" vertex="1" parent="6vDemuTwP7gUTz5lqWlF-70">
          <mxGeometry x="20" y="20" width="120" height="60" as="geometry" />
        </mxCell>
        <mxCell id="6vDemuTwP7gUTz5lqWlF-64" value="CSS" style="rounded=0;whiteSpace=wrap;html=1;verticalAlign=top;fillColor=#f8cecc;strokeColor=#b85450;" vertex="1" parent="6vDemuTwP7gUTz5lqWlF-70">
          <mxGeometry x="40" y="40" width="120" height="60" as="geometry" />
        </mxCell>
        <mxCell id="6vDemuTwP7gUTz5lqWlF-65" value="Przeglądarki" style="rounded=0;whiteSpace=wrap;html=1;verticalAlign=bottom;fillColor=#f5f5f5;fontColor=#333333;strokeColor=#666666;" vertex="1" parent="6vDemuTwP7gUTz5lqWlF-70">
          <mxGeometry x="60" y="60" width="120" height="60" as="geometry" />
        </mxCell>
        <mxCell id="6vDemuTwP7gUTz5lqWlF-66" value="" style="shape=image;verticalLabelPosition=bottom;labelBackgroundColor=default;verticalAlign=top;aspect=fixed;imageAspect=0;image=https://upload.wikimedia.org/wikipedia/commons/thumb/e/e1/Google_Chrome_icon_%28February_2022%29.svg/480px-Google_Chrome_icon_%28February_2022%29.svg.png;" vertex="1" parent="6vDemuTwP7gUTz5lqWlF-70">
          <mxGeometry x="80" y="75" width="22.5" height="22.5" as="geometry" />
        </mxCell>
        <mxCell id="6vDemuTwP7gUTz5lqWlF-67" value="" style="shape=image;verticalLabelPosition=bottom;labelBackgroundColor=default;verticalAlign=top;aspect=fixed;imageAspect=0;image=https://upload.wikimedia.org/wikipedia/commons/thumb/a/a0/Firefox_logo%2C_2019.svg/1200px-Firefox_logo%2C_2019.svg.png;" vertex="1" parent="6vDemuTwP7gUTz5lqWlF-70">
          <mxGeometry x="107.96000000000004" y="72.5" width="24.07" height="25" as="geometry" />
        </mxCell>
        <mxCell id="6vDemuTwP7gUTz5lqWlF-69" value="" style="shape=image;verticalLabelPosition=bottom;labelBackgroundColor=default;verticalAlign=top;aspect=fixed;imageAspect=0;image=https://upload.wikimedia.org/wikipedia/commons/thumb/5/52/Safari_browser_logo.svg/1280px-Safari_browser_logo.svg.png;" vertex="1" parent="6vDemuTwP7gUTz5lqWlF-70">
          <mxGeometry x="140" y="73.75" width="26.4" height="26.25" as="geometry" />
        </mxCell>
        <mxCell id="6vDemuTwP7gUTz5lqWlF-71" value="Web Embedding" style="text;html=1;align=center;verticalAlign=middle;whiteSpace=wrap;rounded=0;rotation=90;" vertex="1" parent="6vDemuTwP7gUTz5lqWlF-72">
          <mxGeometry x="130" y="45" width="120" height="30" as="geometry" />
        </mxCell>
        <mxCell id="6vDemuTwP7gUTz5lqWlF-75" value="Natywne aplikacje mobilne" style="rounded=0;whiteSpace=wrap;html=1;fillColor=#dae8fc;strokeColor=#6c8ebf;" vertex="1" parent="1">
          <mxGeometry x="591.16" y="465" width="120" height="50" as="geometry" />
        </mxCell>
        <mxCell id="6vDemuTwP7gUTz5lqWlF-89" value="" style="edgeStyle=orthogonalEdgeStyle;rounded=0;orthogonalLoop=1;jettySize=auto;html=1;startArrow=classic;startFill=1;" edge="1" parent="1" source="6vDemuTwP7gUTz5lqWlF-76" target="6vDemuTwP7gUTz5lqWlF-79">
          <mxGeometry relative="1" as="geometry">
            <Array as="points">
              <mxPoint x="741.16" y="615" />
              <mxPoint x="741.16" y="615" />
            </Array>
          </mxGeometry>
        </mxCell>
        <mxCell id="6vDemuTwP7gUTz5lqWlF-76" value="Urządzenia IoT" style="rounded=0;whiteSpace=wrap;html=1;fillColor=#fff2cc;strokeColor=#d6b656;" vertex="1" parent="1">
          <mxGeometry x="681.16" y="530" width="120" height="50" as="geometry" />
        </mxCell>
        <mxCell id="6vDemuTwP7gUTz5lqWlF-90" value="" style="edgeStyle=orthogonalEdgeStyle;rounded=0;orthogonalLoop=1;jettySize=auto;html=1;exitX=0.5;exitY=1;exitDx=0;exitDy=0;entryX=0.613;entryY=-0.013;entryDx=0;entryDy=0;entryPerimeter=0;startArrow=classic;startFill=1;" edge="1" parent="1" source="6vDemuTwP7gUTz5lqWlF-77" target="6vDemuTwP7gUTz5lqWlF-79">
          <mxGeometry relative="1" as="geometry">
            <mxPoint x="981.16" y="580" as="sourcePoint" />
            <mxPoint x="931.16" y="615" as="targetPoint" />
          </mxGeometry>
        </mxCell>
        <mxCell id="6vDemuTwP7gUTz5lqWlF-77" value="Aplikacje po stronie serwera (server-side)" style="rounded=0;whiteSpace=wrap;html=1;fillColor=#ffe6cc;strokeColor=#d79b00;" vertex="1" parent="1">
          <mxGeometry x="811.16" y="530" width="120" height="50" as="geometry" />
        </mxCell>
        <mxCell id="6vDemuTwP7gUTz5lqWlF-78" value="Samodzielne środowiska wykonawcze (np. Wasmer, V8 itp.)" style="rounded=0;whiteSpace=wrap;html=1;fillColor=#f5f5f5;fontColor=#333333;strokeColor=#666666;" vertex="1" parent="1">
          <mxGeometry x="901.16" y="465" width="160" height="50" as="geometry" />
        </mxCell>
        <mxCell id="6vDemuTwP7gUTz5lqWlF-79" value="Zasoby systemowe" style="rounded=0;whiteSpace=wrap;html=1;" vertex="1" parent="1">
          <mxGeometry x="601.16" y="615" width="440" height="25" as="geometry" />
        </mxCell>
        <mxCell id="6vDemuTwP7gUTz5lqWlF-84" value="" style="edgeStyle=none;orthogonalLoop=1;jettySize=auto;html=1;rounded=0;entryX=0.5;entryY=0;entryDx=0;entryDy=0;" edge="1" parent="1" target="6vDemuTwP7gUTz5lqWlF-75">
          <mxGeometry width="80" relative="1" as="geometry">
            <mxPoint x="651.16" y="395" as="sourcePoint" />
            <mxPoint x="741.16" y="415" as="targetPoint" />
            <Array as="points" />
          </mxGeometry>
        </mxCell>
        <mxCell id="6vDemuTwP7gUTz5lqWlF-85" value="" style="edgeStyle=none;orthogonalLoop=1;jettySize=auto;html=1;rounded=0;entryX=0.75;entryY=0;entryDx=0;entryDy=0;" edge="1" parent="1" target="6vDemuTwP7gUTz5lqWlF-76">
          <mxGeometry width="80" relative="1" as="geometry">
            <mxPoint x="771.16" y="395" as="sourcePoint" />
            <mxPoint x="851.16" y="455" as="targetPoint" />
            <Array as="points" />
          </mxGeometry>
        </mxCell>
        <mxCell id="6vDemuTwP7gUTz5lqWlF-86" value="" style="edgeStyle=none;orthogonalLoop=1;jettySize=auto;html=1;rounded=0;entryX=0.25;entryY=0;entryDx=0;entryDy=0;" edge="1" parent="1" target="6vDemuTwP7gUTz5lqWlF-77">
          <mxGeometry width="80" relative="1" as="geometry">
            <mxPoint x="841.16" y="395" as="sourcePoint" />
            <mxPoint x="931.16" y="435" as="targetPoint" />
            <Array as="points" />
          </mxGeometry>
        </mxCell>
        <mxCell id="6vDemuTwP7gUTz5lqWlF-88" style="edgeStyle=orthogonalEdgeStyle;rounded=0;orthogonalLoop=1;jettySize=auto;html=1;entryX=0.115;entryY=0.047;entryDx=0;entryDy=0;entryPerimeter=0;startArrow=classic;startFill=1;" edge="1" parent="1" source="6vDemuTwP7gUTz5lqWlF-75" target="6vDemuTwP7gUTz5lqWlF-79">
          <mxGeometry relative="1" as="geometry" />
        </mxCell>
        <mxCell id="6vDemuTwP7gUTz5lqWlF-92" style="edgeStyle=orthogonalEdgeStyle;rounded=0;orthogonalLoop=1;jettySize=auto;html=1;entryX=0.865;entryY=-0.021;entryDx=0;entryDy=0;entryPerimeter=0;startArrow=classic;startFill=1;" edge="1" parent="1" source="6vDemuTwP7gUTz5lqWlF-78" target="6vDemuTwP7gUTz5lqWlF-79">
          <mxGeometry relative="1" as="geometry" />
        </mxCell>
        <mxCell id="6vDemuTwP7gUTz5lqWlF-93" value="WASI" style="edgeLabel;html=1;align=center;verticalAlign=middle;resizable=0;points=[];rotation=90;" vertex="1" connectable="0" parent="6vDemuTwP7gUTz5lqWlF-92">
          <mxGeometry x="-0.1007" y="2" relative="1" as="geometry">
            <mxPoint x="8" y="-5" as="offset" />
          </mxGeometry>
        </mxCell>
        <mxCell id="6vDemuTwP7gUTz5lqWlF-95" value="Non-Web Embedding" style="text;html=1;align=center;verticalAlign=middle;whiteSpace=wrap;rounded=0;rotation=90;" vertex="1" parent="1">
          <mxGeometry x="1011.16" y="535" width="120" height="30" as="geometry" />
        </mxCell>
        <mxCell id="Bx6EQegsM14s8-VYqTBb-1" value="" style="shape=image;aspect=fixed;image=data:image/svg+xml,PHN2ZyBoZWlnaHQ9IjI1MDAiIHByZXNlcnZlQXNwZWN0UmF0aW89InhNaWRZTWlkIiB2aWV3Qm94PSItMTAuODU4IC0zOC40OTY5MDI4NCAyNzEuMTQxIDM4OS45MjQ5MDI4NCIgd2lkdGg9IjE4MzkiIHhtbG5zPSJodHRwOi8vd3d3LnczLm9yZy8yMDAwL3N2ZyI+PHBhdGggZD0ibTMuNjg2IDE4OC4xNjVjLjQ5OCAxMC4yNiAxMC43NTggNS40NzkgMTUuMzQgMi4yOTEgNC4zODMtMy4wODggNS42NzgtLjQ5OCA2LjA3Ni02LjQ3NS4yOTktMy45ODQuNjk3LTcuODY5LjQ5OC0xMS44NTMtNi42NzQtLjU5OC0xMy44NDYuOTk2LTE5LjMyNSA0Ljk4LTIuODg4IDEuOTkyLTguMDY4IDguNTY3LTIuNTkgMTEuMDU3bTIwNC41MDIgMTI2LjEwN2M3Ljg2OSA0Ljg4MSAyMi4zMTMgMTkuNjI0IDEwLjQ1OSAyNi43OTYtMTEuMzU2IDEwLjM2LTE3LjczLTExLjQ1Ni0yNy42OTItMTQuNDQ0IDQuMjgzLTUuODc3IDkuNjYyLTExLjI1NiAxNy4yMzMtMTIuMzUyem0tMTQwLjg1IDE2LjYzNWMtOS4yNjQgMS4zOTUtMTQuNDQ0IDkuNzYyLTIyLjIxMyAxNC4wNDYtNy4yNzIgNC4yODMtMTAuMDYxLTEuMzk1LTEwLjY1OS0yLjU5LTEuMDk1LS40OTgtLjk5Ni40OTgtMi43ODktMS4yOTUtNi43NzMtMTAuNjU5IDYuOTczLTE4LjQyOCAxNC4xNDUtMjMuNzA4IDkuOTYxLTEuOTkyIDE2LjIzNyA2LjY3NCAyMS41MTYgMTMuNTQ3em0xODQuNTc5LTE0NC4wMzdjLS40OTggMTAuMjYtMTAuNzU4IDUuNDc5LTE1LjM0IDIuMjkxLTQuMzgzLTMuMDg4LTUuNjc4LS40OTgtNi4wNzYtNi40NzUtLjMtMy45ODQtLjY5OC03Ljg2OS0uNDk4LTExLjg1MyA2LjY3My0uNTk4IDEzLjg0NS45OTYgMTkuMzI0IDQuOTggMi43OSAxLjk5MiA4LjA2OSA4LjU2NyAyLjU5IDExLjA1NyIgZmlsbD0iI2Y2ZDJhMiIvPjxwYXRoIGQ9Im0yMjQuNzIyIDYxLjc1OWMzNS41NjEtMTIuNTUxIDcuNzctNjEuMjYtMjMuMjEtMzkuNzQ1LTIwLjMyLTE3LjQzMi00OC4zMS0yMC42Mi03Ny42OTYtMjAuNjItMjguNzg2IDIuMjkzLTU2LjE4IDcuNTcyLTc1LjMwNSAyNC4zMDYtMzAuODgxLTE5LjkyMy01OS4zNjkgMjcuODktMjMuMTExIDM5Ljk0NC0xMC4xNiAzOS40NDUgMS4zOTQgNzkuNjg4LS4yIDExOS44MzEtMS40OTQgMzYuMDYtMTAuOTU3IDg0LjM3IDkuMDY1IDExNi43NDQgMTcuMDM0IDI3LjY5MiA1My42OSAzNy41NTQgODMuODczIDM4LjY1IDM4LjU0OSAxLjM5NCA4NS4yNjYtOC4wNjkgMTAzLjk5My00NS40MjMgMTcuOTMtMzUuNTYxIDEyLjk1LTc5Ljg4OCAxMC42NTktMTE4LjIzOC0yLjI5MS0zOC43NDkgMS45OTItNzguMDk1LTguMDY5LTExNS40NXoiIGZpbGw9IiM2OWQ3ZTIiLz48cGF0aCBkPSJtMjU0LjYwNSAxODAuNzk0Yy0uOTk2LTIuMDkyLTIuODg4LTQuNDgzLTQuNjgxLTUuNzc4LTQuNTgyLTMuMjg3LTEwLjQ2LTUuMDgtMTYuNTM2LTUuMjc5LS4xOTktNi4xNzYtLjM5OC0xMi45NS0uMzk4LTIxLjUxNnYtNy43N2MtLjEtMjQuNTA0LS4zOTktMzUuMjYyLTEuNzkzLTQ4LjcxLTEuMDk2LTEwLjU1OC0yLjc5LTIwLjMyLTUuMTgtMjkuNDg0IDguMDY5LTMuMDg4IDEzLjM0OC04LjE2OCAxNS40NC0xNC43NDMgMS45OTItNi4wNzYuOTk2LTEyLjk0OS0yLjM5LTE5LjAyNS0zLjQ4Ny01Ljk3Ny05LjA2NS0xMC40Ni0xNS41NC0xMi4yNTItNi45NzMtMS44OTMtMTQuNTQzLS40OTgtMjEuODE1IDQuMzgyLTYuNDc1LTUuNDc4LTEzLjk0NS05LjY2Mi0yMi4zMTMtMTIuODUtMTQuODQyLTUuNDc3LTMyLjA3NC03LjU2OS01NS40ODMtNy41Njl2Ljk5NmwtLjEtLjk5NmMtMjUuMDAyIDEuOTkyLTQzLjUzIDUuODc3LTU4Ljg3IDEzLjM0OC02LjE3NiAyLjk4OC0xMS42NTQgNi41NzQtMTYuNDM1IDEwLjc1OC03LjM3Mi00LjU4Mi0xNS4wNDItNS42NzgtMjIuMTE0LTMuNDg2LTYuNTc0IDEuOTkyLTEyLjI1MiA2LjY3NC0xNS42MzkgMTIuNzVzLTQuMTg0IDEzLjA0OS0xLjg5MyAxOS4wMjZjMi4yOTEgNS45NzYgNy41NyAxMC42NTggMTUuNDQgMTMuNTQ3LTIuNDkgMTAuMDYtMy43ODUgMjAuNzE5LTMuOTg0IDMyLjQ3My0uMiAxMS40NTUuMjk4IDIwLjYyIDIuMDkxIDQxLjMzOCAxLjI5NSAxNS40NCAxLjc5MyAyMi41MTIgMS45OTMgMzEuMDc5LTYuNzc0LS4yOTktMTMuNTQ3IDEuNDk0LTE4LjYyOCA1LjE4LTEuNzkzIDEuMjk1LTMuNzg1IDMuNTg2LTQuNjgxIDUuNzc3LTEuMjk1IDIuNzktLjc5NyA1LjI4IDEuNzkzIDYuNzc0LjM5OCA0Ljc4MSAzLjA4OCA2Ljk3MiA3LjE3MiA2LjU3NCAyLjk4OC0uMjk5IDYuNTc0LTEuODkzIDkuNjYyLTQuMDg0YTExLjIwOCAxMS4yMDggMCAwIDEgMi4wOTItMS4xOTVjLjI5OS0uMS40OTgtLjIuNzk3LS4zIDAgMCAuNTk3LS4xOTguNzk3LS4yOTguMjk4LS4xLjU5Ny0uMi43OTYtLjM5OS0uMTk5IDQuNjgyLS41OTcgOS41NjMtMS40OTQgMjAuNzItLjk5NiAxMi41NS0xLjQ5NCAxOS40MjQtMS42OTMgMjcuMDk0LS44OTcgMjguNDg4IDIuNDkgNDkuMjA3IDEyLjY1IDY1LjY0MyAzLjE4OCA1LjE4IDcuMDczIDkuNzYyIDExLjY1NSAxMy45NDYtLjg5Ny41OTctNC42ODIgMy4zODctNS44NzcgNC4yODMtNC4xODQgMy4xODgtNy4wNzIgNS44NzctOC43NjYgOC44NjUtMi4xOTEgMy44ODUtMi4xOTEgNy43Ny4yOTkgMTEuODU0bC4xLjEuMS4xYzEuMDk1IDEuMDk1IDEuNjkzIDEuMzk0IDIuNDkgMS4zOTRoLjI5N2MuMS4yLjIuMjk5LjMuNDk4LjI5OC40OTguNTk3Ljg5Ni44OTYgMS4yOTUgMi40OSAyLjg4OSA1Ljk3NiAzLjU4NiAxMC42NTguNzk3IDIuNDktMS4yOTUgNC4yODMtMi43OSA4LjA2OC01Ljk3N2wuMi0uMmM2LjA3Ni01LjE3OSA5LjA2NC03LjA3MSAxMy41NDctNy43NjlsMS41OTQtLjI5OWMuNTk3LjMgMS4xOTUuNDk5IDEuODkyLjc5NyAxNC4xNDUgNS42NzggMzAuNTggOC43NjYgNDcuMjE2IDkuMzY0IDIxLjUxNi43OTcgNDIuMjM1LTEuODkzIDU5Ljc2Ni04LjI2OCA0LjY4Mi0xLjY5MyA5LjA2NS0zLjY4NiAxMy4yNDktNS44NzcgMi41OS45OTYgNC43OCAzLjA4OCA4Ljk2NSA3Ljk2OS4xOTkuMi4xOTkuMi4yOTguMzk4LjIuMi4yLjMuMy4zOTkuMTk4LjI5OS40OTcuNDk4LjY5Ni43OTcgMy4yODggMy44ODQgNS40OCA1Ljc3NyA3Ljk3IDYuODczIDMuMjg2IDEuMzk0IDYuNDc0LjY5NyA5Ljc2MS0yLjI5MSA1Ljc3OC0zLjU4NiA2LjE3Ni05LjE2NCAyLjM5LTE1LjU0LTIuNjg5LTQuNDgyLTcuMzctOS4xNjQtMTEuNzUzLTEyLjE1MiA1LjE4LTUuMDggOS42NjItMTEuMTU2IDEzLjE0OC0xOC4wMyA5LjU2My0xOS4xMjUgMTMuMjQ5LTQxLjQzOCAxMy4wNS03MC4xMjYtLjEtMTAuMTYtLjQ5OS0xOS4wMjUtMS41OTQtMzUuOTZ2LS40OTdjLjQ5OC4xOTkuOTk2LjQ5OCAxLjQ5NC44OTYgMy4wODggMi4wOTIgNi42NzQgMy43ODUgOS42NjIgNC4wODQgNC4wODQuMzk5IDYuNzc0LTEuNzkzIDcuMTcyLTYuNTc0IDIuNDktMS41OTQgMi45ODgtNC4wODQgMS42OTMtNi44NzN6bS0zMS42NzUtMTYyLjQ2NmM1Ljk3NyAxLjU5NCAxMS4xNTcgNS43NzggMTQuMzQ0IDExLjM1NiAzLjE4OCA1LjU3OCA0LjA4NCAxMS44NTQgMi4yOTEgMTcuNDMyLTEuODkyIDUuODc3LTYuNjc0IDEwLjU1OS0xNC4xNDUgMTMuMzQ4YTE2Mi4wNCAxNjIuMDQgMCAwIDAgLTUuMjc5LTE1LjczOWMyLjg4OS0yLjQ5IDQuMjgzLTUuNTc4IDEuOTkyLTkuOTYtMi4yOS00LjM4NC02LjI3NS00Ljg4Mi0xMC4zNi0zLjU4Ny0yLjU5LTMuMzg3LTUuNDc4LTYuMzc1LTguNDY2LTkuMTY0IDYuNTc0LTQuMTg0IDEzLjM0OC01LjM3OSAxOS42MjMtMy42ODZ6bS0yMTIuMzcgMzMuNjY5Yy0yLjA5Mi01LjM4LTEuMzk1LTExLjc1NCAxLjc5My0xNy4zMzIgMy4xODctNS41NzkgOC4zNjctOS45NjEgMTQuNTQzLTExLjc1NCA2LjM3NS0xLjg5MyAxMy4yNDgtLjk5NyAyMC4wMjIgMi45ODhhNjUuNTQxIDY1LjU0MSAwIDAgMCAtMTAuMzYgMTEuODU0Yy01LjE4LTIuNjktMTAuNDU5LTMuMTg4LTEzLjQ0NyAyLjI5LTMuMDg4IDUuODc4LjQ5OCA5LjU2MyA1LjU3OCAxMi4zNTItLjY5NyAxLjY5NC0xLjM5NSAzLjQ4Ny0xLjk5MiA1LjI4LS42OTggMi4xOTEtMS4zOTUgNC40ODItMS45OTIgNi43NzMtNy4yNzItMi43ODktMTIuMDUzLTcuMDcyLTE0LjE0NS0xMi40NTF6bTEyLjA1MyAxMzUuNzdjLS4xIDAtLjY5OC4xOTktLjY5OC4yOTgtLjI5OC4xLS41OTcuMi0uODk2LjM5OS0uNzk3LjI5OS0xLjU5NC43OTctMi4zOSAxLjM5NC0yLjc5IDEuOTkzLTYuMTc3IDMuNDg3LTguNzY3IDMuNjg2LTIuOTg4LjI5OS00LjY4MS0uOTk2LTQuOTgtNC41ODIgMi4wOTItLjY5NyAyLjk4OC0xLjE5NSAzLjc4NS0yLjM5bC0xLjU5NC0xLjE5NmMtLjU5Ny43OTctMS4xOTUgMS4wOTYtMi45ODggMS42OTMtLjEgMC0uMSAwLS4yLjEtMS41OTMtLjg5Ny0xLjg5Mi0yLjI5MS0uOTk1LTQuMjgzLjc5Ny0xLjc5MyAyLjU5LTMuODg1IDQuMDg0LTQuOTggNC43ODEtMy40ODcgMTEuMTU2LTUuMTggMTcuNTMxLTQuNzgyIDAgMi40OS4xIDQuOTggMCA3LjM3IDAgLjMgMCAuNDk5LS4xLjc5OC0uMDk5IDEuMzk0LS4wOTkgMS45OTItLjE5OSAyLjY5LS4yOTggMi44ODgtLjQ5OCAzLjI4Ni0xLjU5MyAzLjc4NXptMzAuMDgyIDE1MC4zMTItLjIuMmMtMy42ODUgMy4xODctNS40NzggNC40ODItNy43NjkgNS43NzctMy43ODUgMi4yOTEtNi4zNzUgMS43OTMtOC4xNjgtLjM5OC0uMjk5LS4zLS40OTgtLjY5OC0uNjk3LS45OTctLjEtLjEtLjItLjI5OC0uMjk5LS4zOTh2LS4xYy4yLTEuNzkzLjg5Ny0zLjA4OCAyLjY5LTUuODc3LjEtLjEuMS0uMS4xLS4xOTkgMS4wOTUtMS41OTQgMS41OTMtMi40OSAyLjA5MS0zLjU4NmwtMS43OTMtLjc5N2MtLjM5OC44OTctLjg5NiAxLjY5NC0xLjg5MyAzLjI4Ny0uMS4xLS4xLjEtLjEuMi0xLjc5MiAyLjU5LTIuNTkgNC4xODMtMi45ODggNS45NzZoLS4xLS4yOTljLS4yLS4xLS40OTgtLjI5OS0uODk2LS42OTctMy44ODUtNi4xNzYtLjc5Ny0xMS40NTUgNy45NjgtMTguMDMgMS4wOTYtLjc5NiA0Ljc4Mi0zLjM4NiA1Ljc3OC00LjE4My4yIDAgLjM5OC0uMS41OTgtLjIgNS4zNzggNC41ODMgMTEuNjU0IDguNTY3IDE4LjYyNyAxMS44NTQgMCAuMS4xLjIuMTk5LjMtNC4wODQuOTk1LTcuMjcyIDMuMDg3LTEyLjg1IDcuODY4em0xNjcuMjQ3LTEwLjg1N2MzLjA4OCA1LjE4IDIuOTg4IDkuMzYzLS44OTcgMTIuMjUyLS4yOTgtLjU5OC0uNDk4LTEuMjk1LS44OTYtMi4yOTEgMC0uMSAwLS4xLS4xLS4yLTEuMzk0LTMuNzg1LTIuMjktNS4zNzgtMy45ODQtNy4xNzFsLTEuMzk1IDEuMzk0YzEuNDk0IDEuMzk1IDIuMTkyIDIuODg5IDMuNTg2IDYuMzc1IDAgLjEgMCAuMS4xLjIuNDk4IDEuMjk0Ljc5NyAyLjA5MSAxLjA5NiAyLjc4OS0yLjU5IDIuMTkxLTQuODgxIDIuNTktNy4yNzIgMS40OTQtMi4wOTItLjg5Ny00LjA4NC0yLjc5LTcuMjcyLTYuMzc1LS4xOTktLjItLjM5OC0uNDk4LS41OTctLjc5Ny0uMS0uMS0uMi0uMi0uMy0uMzk5LS4xOTgtLjE5OS0uMTk4LS4xOTktLjI5OC0uMzk4LTMuNjg2LTQuMjgzLTUuODc3LTYuNTc0LTguMjY4LTcuODcgNS41NzktMy4xODcgMTAuNTYtNi43NzMgMTUuMDQyLTEwLjk1NyA0LjE4MyAzLjA4OCA4Ljg2NSA3LjY3IDExLjQ1NSAxMS45NTR6bTEuMzk0LTMyLjI3NGMtOC41NjYgMTcuMjMzLTIzLjcwNyAyOS4zODUtNDQuMDI4IDM2Ljc1Ni0xNy4zMzIgNi4yNzYtMzcuODUyIDguODY2LTU5LjA2OSA4LjA2OS0zNi41NTctMS4yOTUtNjguMjMzLTE0LjA0NS04My4wNzUtMzguMTUxLTkuOTYxLTE2LjAzOC0xMy4yNDktMzYuNDU4LTEyLjM1Mi02NC41NDguMjk5LTcuNjcuNjk3LTE0LjU0MyAxLjY5My0yNy4wOTQgMS4wOTYtMTQuMTQ1IDEuMzk1LTE4LjIyOSAxLjY5NC0yNC42MDQuMTk5LTQuNTgyLjE5OS05LjI2NC4xLTE0LjI0NC0uMi04Ljc2Ni0uNjk4LTE1LjczOS0xLjk5My0zMS4zNzgtMS43OTMtMjAuNzE5LTIuMjkxLTI5Ljc4NC0yLjA5Mi00MS4xNC4zLTE0Ljk0IDIuMjkxLTI4LjA5IDYuNDc1LTQwLjU0IDYuNzcxLTIwLjIyMyAxOS4yMjQtMzMuODcgMzcuMTU0LTQyLjczNCAxNS4wNDEtNy4zNyAzMy4yNy0xMS4xNTYgNTguMDczLTEzLjE0OSAyMy4yMSAwIDQwLjE0MyAyLjA5MiA1NC43ODYgNy40NzEgMTcuNTMxIDYuNDc1IDMwLjU4IDE3LjgzIDM5LjU0NSAzNS4yNjMgNS43NzggMTQuMTQ0IDkuMTY1IDI5LjM4NSAxMC45NTggNDYuOTE2IDEuMzk0IDEzLjM0OCAxLjY5MyAyNC4xMDYgMS43OTMgNDguNTF2Ny43N2MuMSAxMi4wNTMuMjk4IDIwLjUyLjc5NyAyOC45ODcuMTk5IDMuMjg3LjI5OCA0LjY4Mi43OTYgMTIuNTUxIDEuMDk2IDE2LjkzNCAxLjQ5NSAyNS43IDEuNTk0IDM1Ljg2LjIgMjguNTg4LTMuMzg3IDUwLjYwMi0xMi44NSA2OS40Mjl6bTMwLjQ4MS0xMDkuMDc0Yy0uMSAwLS4xOTktLjEtLjI5OC0uMS0xLjc5My0uNTk3LTIuMzkxLS45OTYtMi45ODktMS42OTNsLTEuNTk0IDEuMTk1Yy44OTcgMS4xOTYgMS43OTMgMS42OTQgMy43ODYgMi4zOS0uMzk5IDMuNTg3LTIuMDkyIDQuODgyLTQuOTggNC41ODMtMi41OS0uMi01Ljk3OC0xLjc5My04Ljc2Ny0zLjY4Ni0uNzk3LS41OTctMS41OTMtLjk5Ni0yLjM5LTEuMzk0LS4xIDAtLjItLjEtLjMtLjEtLjM5OC01LjQ3OC0uMzk4LTYuODczLS41OTctOS43NjJsLS4yOTktNS4zNzljNS41NzkuMSAxMS4wNTcgMS43OTMgMTUuMjQgNC44ODEgMS40OTUgMS4wOTYgMy4yODggMy4xODggNC4wODUgNC45OC45OTYgMS42OTQuNzk3IDMuMTg4LS44OTcgNC4wODV6Ii8+PHBhdGggZD0ibTEzOC45MTggMTA0LjEyM2MuMSA1LjA4IDEuMDk2IDEwLjY1OC4xOTkgMTYuMDM3LTEuMzk1IDIuNTktMy45ODQgMi44OS02LjI3NSAzLjg4NS0zLjE4OC0uNDk4LTUuODc4LTIuNTktNy4xNzItNS41NzgtLjc5Ny02LjA3Ni4xOTktMTEuODU0LjQ5OC0xNy45MyAwLS4yIDMuNzg1LjEgNy4xNzIgMS4wOTYgMi44ODguODk2IDUuNTc4IDIuMzkgNS41NzggMi40OXptLTI4LjE5LjM5OGMtMi43OSAxMC41NiAzLjY4NiAyNy43OTIgMTQuMzQ0IDEzLjY0Ny0uNzk3LTUuOTc3LjEtMTEuNzU0LjM5OC0xNy42MzEuMS0uNDk4LTE0LjY0MiAzLjI4Ny0xNC43NDIgMy45ODR6IiBmaWxsPSIjZmZmIi8+PHBhdGggZD0ibTE0MC4xMTMgMTA4LjgwNWMtLjItMi45ODktLjI5OS00LjE4NC0uMjk5LTUuNjc4di0uNjk3bC0uNjk3LS4yLTEyLjU1MS0zLjg4NHYtLjY5OGwtMS4yOTUuM2gtLjF2LjA5OWwtMTQuMTQ0IDMuNTg2LS40OTguMS0uMi40OTdjLTIuMTkxIDUuMjgtMS42OTMgMTMuMjQ5IDEuMDk2IDE4LjEzIDMuMTg4IDUuNTc4IDguMzY3IDUuNjc3IDEzLjY0Ny0uNjk4YTEwLjE5MiAxMC4xOTIgMCAwIDAgNy40NyA1LjM4aC4zbC4yOTgtLjFjLjM5OS0uMi43OTctLjMgMS40OTUtLjU5OC4xIDAgLjEgMCAuMTk5LS4xIDIuODg4LS45OTYgNC4wODQtMS43OTMgNS4wOC0zLjY4NWwuMS0uMXYtLjE5OWMuMjk4LTEuNzkzLjM5OC0zLjY4Ni4zOTgtNS43NzcgMC0xLjQ5NS0uMS0yLjg5LS4yOTktNS42Nzh6bS0xNS45MzgtMy42ODZjLS4xIDEuNzkzLS4xOTkgMi40OS0uMjk4IDMuNDg2LS4yIDMuNjg2LS4yIDYuNDc1LjEgOS4yNjQtNC42ODMgNS45NzctOC4zNjggNS45NzctMTAuODU4IDEuNDk0LTIuMzkxLTQuMTgzLTIuODktMTEuMjU2LTEuMDk2LTE1LjkzN2wxMi41NS0zLjE4OGMtLjA5OSAxLjI5NS0uMTk4IDIuNTktLjM5OCA0Ljg4MXptMTMuOTQ2IDE0Ljc0M2MtLjY5NyAxLjE5NS0xLjU5NCAxLjc5My0zLjk4NSAyLjU5LS4xIDAtLjEgMC0uMTk5LjA5OS0uNTk3LjItLjk5Ni4zOTgtMS4yOTUuNDk4LTIuNjktLjQ5OC00Ljk4LTIuMjkxLTYuMDc2LTQuNzgxLS4yOTktMi42OS0uMjk5LTUuNDc5LS4xLTkuMTY0LjEtLjk5Ny4xLTEuNjk0LjMtMy40ODcuMTk4LTIuMjkuMjk4LTMuNjg1LjI5OC00Ljk4bDEwLjg1OCAzLjI4N2MwIDEuMjk1LjEgMi40OS4yOTkgNS4wOC4xOTkgMi42OS4yOTggNC4wODQuMjk4IDUuNjc4IDAgMS44OTItLjEgMy41ODYtLjM5OCA1LjE4eiIvPjxnIHRyYW5zZm9ybT0idHJhbnNsYXRlKDQ4LjQ3NiAyMS45NzYpIj48cGF0aCBkPSJtMi4yOTEgMzguNzQ5YzkuMTY0IDM1LjY2IDY2LjI0MSAyNi40OTYgNjQuMDUtOS4yNjQtMi41OTEtNDIuODMzLTcyLjgxNi0zNC41NjUtNjQuMDUxIDkuMjY0IiBmaWxsPSIjZmZmIi8+PHBhdGggZD0ibTY3LjMzNyAyOS4zODVjLS41OTgtMTAuMzYtNS4xOC0xOC40MjgtMTIuNzUtMjMuNTA4LTYuNzc0LTQuNTgyLTE1LjczOS02LjM3NS0yNC42MDQtNS4yOC04Ljg2NSAxLjE5Ny0xNy4wMzQgNS4xODEtMjIuNDEzIDExLjQ1Ny01Ljk3NiA2Ljk3Mi04LjI2NyAxNi4xMzYtNi4xNzUgMjYuNjk1bC44OTYtLjItLjg5Ni4yYzkuMzYzIDM2LjY1NiA2OC4xMzMgMjcuNzkxIDY1Ljk0Mi05LjM2NHptLTY0LjE1IDkuMTY1Yy0xLjk5Mi0xMC4wNi4yLTE4LjYyNyA1Ljc3OC0yNS4xMDIgNS4wOC01Ljg3NyAxMi43NS05Ljc2MSAyMS4yMTctMTAuODU3czE2LjkzNC41OTggMjMuMzEgNC45OGM3LjA3MSA0Ljc4MiAxMS4zNTUgMTIuMjUzIDExLjk1MiAyMi4xMTQgMi4wOTIgMzQuNzY0LTUzLjM5MSA0My4xMzItNjIuMjU2IDguODY1eiIvPjxlbGxpcHNlIGN4PSIxOC4wMyIgY3k9IjMyLjg3MiIgcng9IjkuNjYyIiByeT0iMTAuNDU5Ii8+PGVsbGlwc2UgY3g9IjIyLjQxMiIgY3k9IjM1LjI2MiIgZmlsbD0iI2ZmZiIgcng9IjIuMjkxIiByeT0iMi42ODkiLz48L2c+PGcgdHJhbnNmb3JtPSJ0cmFuc2xhdGUoMTI5LjYxOCAxOC4wOTgpIj48cGF0aCBkPSJtMS4xOTUgMzUuOTZjNy4wNzMgNDAuOTQgNzQuMDExIDMwLjA4MiA2NC4zNDktMTEuMTU3LTguNjY2LTM3LjA1NS02Ni43NC0yNi43OTUtNjQuMzQ5IDExLjE1NyIgZmlsbD0iI2ZmZiIvPjxwYXRoIGQ9Im02Ni40NCAyNC42MDRjLTguODY1LTM4LjE1MS02OC42My0yNy42OTItNjYuMjQgMTEuNDU1di4xYzMuMjg2IDE5LjMyNCAyMC41MiAyOS4xODYgMzkuNTQ1IDI1Ljk5OCA4LjY2NS0xLjQ5NCAxNi40MzUtNS42NzcgMjEuNTE1LTExLjg1MyA1LjU3OC02Ljg3NCA3LjU3LTE1LjczOSA1LjE4LTI1Ljd6bS02LjY3MyAyNC41MDRjLTQuNzgyIDUuNzc4LTEyLjA1MyA5Ljc2Mi0yMC4zMjEgMTEuMTU3LTE4LjAzIDIuOTg4LTM0LjE2Ny02LjI3Ni0zNy4zNTQtMjQuNDA1LTIuMTkyLTM2Ljg1NiA1NC4xODgtNDYuNzE4IDYyLjU1NS0xMC44NTggMi4xOTIgOS40NjMuMzk5IDE3LjczMS00Ljg4IDI0LjEwNnoiLz48ZWxsaXBzZSBjeD0iMTcuNjMxIiBjeT0iMzQuMTY3IiByeD0iOS40NjMiIHJ5PSIxMC40NTkiLz48ZWxsaXBzZSBjeD0iMjIuMDE0IiBjeT0iMzYuNTU3IiBmaWxsPSIjZmZmIiByeD0iMi4xOTEiIHJ5PSIyLjY4OSIvPjwvZz48cGF0aCBkPSJtMTEyLjc4NSA4My4wMDJjLTcuODcuNjk3LTE0LjI0NSA5Ljk2MS0xMC4xNiAxNy4zMzIgNS4zNzggOS43NjIgMTcuNDMxLS44OTYgMjQuOTAyLjEgOC42NjYuMiAxNS43MzkgOS4xNjQgMjIuNjEyIDEuNTk0IDcuNjctOC4zNjgtMy4yODctMTYuNTM2LTExLjk1NC0yMC4xMjJ6IiBmaWxsPSIjZjZkMmEyIi8+PHBhdGggZD0ibTE1MS4xMzUgODkuNjc2Yy0yLjY5LTMuMzg3LTcuMzcxLTYuNDc1LTEyLjQ1Mi04LjU2N2wtLjE5OS0uMWgtLjE5OWwtMjUuNS45OTdjLTguODY2Ljc5Ny0xNS4yNCAxMS4wNTctMTAuOTU4IDE4LjgyNiAxLjY5NCAyLjk4OSAzLjk4NSA0LjQ4MyA3LjA3MyA0LjY4MiAyLjI5LjEgNC42ODItLjM5OCA4LjM2Ny0xLjY5My4yOTktLjEuNjk3LS4yIDEuMTk1LS4zOTkgNC45ODEtMS42OTMgNi45NzMtMi4xOTEgOC45NjUtMS44OTJoLjFjMi4zOSAwIDQuMzgzLjY5NyA4LjE2OCAyLjE5MSA0LjE4NCAxLjY5MyA1LjQ3OSAyLjE5MiA3LjU3IDIuMzkgMi44OS4yIDUuMzgtLjc5NiA3LjY3LTMuMjg2IDMuODg1LTQuMjg0IDMuNjg2LTguODY2LjItMTMuMTQ5em0tMS42OTQgMTEuNzU0Yy0xLjg5MiAyLjA5Mi0zLjc4NSAyLjc5LTYuMDc2IDIuNjktMS43OTMtLjEtMi45ODgtLjU5OC02Ljk3My0yLjE5Mi0zLjk4NC0xLjY5My02LjE3NS0yLjI5LTguNzY1LTIuMzktMi40OS0uMy00LjU4Mi4xOTktOS44NjIgMS45OTItLjQ5OC4xOTktLjg5Ni4yOTktMS4xOTUuMzk4LTcuMjcyIDIuNDktMTAuNzU4IDIuMjkxLTEzLjE0OS0yLjA5Mi0zLjU4Ni02LjQ3NCAxLjg5My0xNS4yNCA5LjM2NC0xNS45MzdsMjUuMjAxLS45OTdjNC43ODIgMS45OTMgOS4wNjUgNC44ODEgMTEuNTU1IDcuOTcgMi45ODggMy41ODUgMy4wODggNy4xNzEtLjEgMTAuNTU4eiIgZmlsbD0iIzIzMWYyMCIvPjxwYXRoIGQ9Im0xNDAuMTc4IDc4LjcxOWMtMy4wODgtMTEuMzU2LTI4Ljk4Ny05LjY2Mi0yOC4zOSAzLjg4NSAxLjI5NSAxMC4wNiAzMS4zNzggNy4zNyAyOC4zOS0zLjg4NXoiLz48L3N2Zz4=;" vertex="1" parent="1">
          <mxGeometry x="20.119999999999997" y="576.89" width="63.42" height="86.22" as="geometry" />
        </mxCell>
      </root>
    </mxGraphModel>
  </diagram>
</mxfile>
